<?xml version="1.0" encoding="UTF-8" standalone="no"?>
<!DOCTYPE svg PUBLIC "-//W3C//DTD SVG 1.1//EN" "http://www.w3.org/Graphics/SVG/1.1/DTD/svg11.dtd">
<svg width="100%" height="100%" viewBox="0 0 9934 7016" version="1.1" xmlns="http://www.w3.org/2000/svg" xmlns:xlink="http://www.w3.org/1999/xlink" xml:space="preserve" xmlns:serif="http://www.serif.com/" style="fill-rule:evenodd;clip-rule:evenodd;stroke-linecap:round;stroke-linejoin:round;stroke-miterlimit:1.5;">
    <g transform="matrix(1,0,0,1,71.3164,-53.4873)">
        <path d="M9566.44,564.737C9566.44,380.972 9417.25,231.778 9233.48,231.778L556.955,231.778C373.19,231.778 223.997,380.972 223.997,564.737L223.997,6557.99C223.997,6741.75 373.19,6890.94 556.955,6890.94L9233.48,6890.94C9417.25,6890.94 9566.44,6741.75 9566.44,6557.99L9566.44,564.737Z" style="fill:none;stroke:black;stroke-width:4.25px;"/>
    </g>
    <g transform="matrix(1.02901,0,0,1.0257,-70.6823,118.846)">
        <path d="M9566.44,564.737C9566.44,380.972 9417.73,231.778 9234.55,231.778L555.886,231.778C372.711,231.778 223.997,380.972 223.997,564.737L223.997,6557.99C223.997,6741.75 372.711,6890.94 555.886,6890.94L9234.55,6890.94C9417.73,6890.94 9566.44,6741.75 9566.44,6557.99L9566.44,564.737Z" style="fill:none;stroke:black;stroke-width:4.14px;"/>
    </g>
</svg>
