<?xml version="1.0" encoding="UTF-8" standalone="no"?>
<!DOCTYPE svg PUBLIC "-//W3C//DTD SVG 1.1//EN" "http://www.w3.org/Graphics/SVG/1.1/DTD/svg11.dtd">
<svg width="100%" height="100%" viewBox="0 0 9934 14044" version="1.1" xmlns="http://www.w3.org/2000/svg" xmlns:xlink="http://www.w3.org/1999/xlink" xml:space="preserve" xmlns:serif="http://www.serif.com/" style="fill-rule:evenodd;clip-rule:evenodd;stroke-linecap:round;stroke-linejoin:round;stroke-miterlimit:1.5;">
    <g>
        <path d="M6147.72,7110.64L6014.07,7467.49L5950.53,7632.74L5908.69,7802.79L5901.51,7970.44L5913.48,8032.71L5950.53,7847.18L6038.97,7596.82L6121.85,7335.77L6147.72,7110.64Z" style="fill:rgb(26,26,26);stroke:rgb(26,26,26);stroke-width:3.81px;"/>
        <path d="M6184.12,7230.39L6147.72,7364.51L6124.24,7536.94L6083.53,7604L6024.62,7778.84L5973.36,7953.67L5937.44,8118.93L5942.23,8200.36L5947.01,8253.05L6024.62,8121.32L6061.97,7984.81L6081.13,7781.23L6114.66,7630.35L6147.72,7571.67L6179.33,7364.51L6184.12,7230.39Z" style="fill:rgb(26,26,26);stroke:rgb(26,26,26);stroke-width:3.81px;"/>
        <path d="M6287.1,7592.03L6275.13,7501.02L6224.83,7498.62L6184.12,7571.67L6147.72,7741.72L6147.72,7989.6L6184.12,7896.19L6232.02,7741.72L6270.34,7714.17L6291.89,7741.72L6335.06,7606.4L6287.1,7592.03" style="fill:rgb(26,26,26);stroke:rgb(26,26,26);stroke-width:3.81px;"/>
        <path d="M6335.06,8051.87L6277.52,7989.6L6184.12,7989.6L6147.72,8092.58L6126.64,8123.72L6081.13,8205.15L6060.78,8269.81L6095.5,8253.05L6184.12,8272.2L6205.67,8291.36L6241.39,8315.32L6299.08,8324.9L6335.06,8051.87Z" style="fill:rgb(26,26,26);stroke:rgb(26,26,26);stroke-width:3.81px;"/>
        <path d="M6197.92,8617.08L6147.72,8514.1L6060.78,8487.75L6024.62,8535.65L6024.62,8600.32L6060.78,8693.72L6097.9,8811.08L6147.72,8861.37L6197.92,8849.4L6197.92,8617.08" style="fill:rgb(26,26,26);stroke:rgb(26,26,26);stroke-width:3.81px;"/>
        <path d="M6479.73,6901.99L6418.91,6899.05L6335.06,6903.96L6307.08,6934.37L6267.84,6972.63L6216.82,7108L6207.02,7164.9L6219.77,7211.99L6251.16,7270.85L6281.57,7337.55L6314.92,7375.81L6335.06,7274.77L6373.78,7238.47L6445.4,7194.33L6478.75,7160.98L6492.48,7102.11L6479.73,6901.99Z" style="fill:rgb(38,38,38);stroke:black;stroke-width:3.81px;"/>
        <path d="M6281.57,7072.69L6323.75,7000.09L6364.95,6971.64L6403.21,6956.93L6447.36,6947.12L6480.71,6956.93L6492.48,7090.34L6478.75,7127.62L6441.47,7112.91L6407.14,7091.32L6335.06,7084.46L6303.15,7078.57L6281.57,7072.69Z" style="stroke:black;stroke-width:3.81px;"/>
        <path d="M5936.69,5752.53C5936.69,5752.53 6479.33,6374.61 6479.3,6840.81C6479.3,6840.81 6557.11,7145.36 6461.31,7202.24C6461.31,7202.24 6413.07,7160.33 6348.87,7268.1C6348.87,7268.1 6407.42,8076.41 6269.71,8435.66C6269.71,8435.66 6165.94,8666.17 6214.83,9163.14" style="fill:none;stroke:black;stroke-width:41.67px;"/>
        <path d="M5846.28,4464.05C5846.28,4464.05 6024.58,3827.64 6512.55,3691.17C6512.55,3691.17 7063.16,3647.36 6783.83,4785.12C6783.83,4785.12 6529.17,5541.05 5939.78,5751.08" style="fill:none;stroke:black;stroke-width:41.67px;"/>
        <path d="M5273.95,5246.54C5273.38,5223.78 5272.23,5178.24 5280.08,5145.38C5289.53,5105.78 5318.33,5055.87 5330.66,5008.96C5343.69,4959.4 5370.27,4901.1 5358.25,4848.02C5342.92,4780.32 5278.78,4684.41 5238.69,4602.77C5193.54,4510.8 5121.23,4378.47 5087.32,4296.21C5062.65,4236.39 5057.68,4163.11 5035.2,4109.21C5014.73,4060.12 4973.89,4002.17 4952.43,3972.79C4940.47,3956.41 4924.39,3923.47 4906.45,3932.94C4787.08,3995.91 4419.85,4232.39 4236.23,4350.63" style="fill:none;stroke:black;stroke-width:41.67px;"/>
        <path d="M3795.96,5891.65C3795.96,5891.65 3009.65,6793.55 1685.16,7362.36" style="fill:none;stroke:black;stroke-width:41.67px;"/>
        <path d="M3924.76,10009L4228.92,9697.67C4228.92,9697.67 4313.95,9606.66 4330.12,9558.76C4346.28,9510.86 4343.46,9455.77 4417.91,9422.24C4492.37,9388.71 4484.16,9393.5 4484.16,9393.5" style="fill:none;stroke:black;stroke-width:41.67px;"/>
        <path d="M5271.03,5246.54C5271.03,5246.54 5281.07,5420.03 5668.3,4772.1C5720.07,4685.48 5779.06,4583.64 5846.28,4464.05C5846.28,4464.05 5829.04,4850.5 5698.87,5222.86C5698.87,5222.86 5659.13,5249.87 5661.81,5495.89" style="fill:none;stroke:black;stroke-width:41.67px;"/>
        <path d="M3710.93,5438.76C3840.53,5475.89 4166.1,5319.89 4245.31,5185.79C4324.52,5051.7 4212.25,4776.64 4186.18,4634.19C4167.08,4529.81 4141.9,4416.52 4088.89,4331.07C4035.87,4245.63 3941.07,4170.16 3868.1,4121.51C3803.71,4078.59 3707.81,4038.56 3651.05,4039.18C3600.88,4039.74 3559.24,4086.35 3527.56,4125.25C3492.01,4168.91 3456.47,4238.02 3437.75,4301.14C3414.67,4378.93 3384.66,4493.83 3389.1,4592.04C3394.09,4702.35 3422.78,4844.86 3467.68,4963.01C3521.32,5104.13 3581.32,5401.63 3710.93,5438.76Z" style="fill:rgb(26,26,26);stroke:black;stroke-width:41.67px;"/>
        <path d="M5846.28,5335.31C5768.85,5341.27 6088.87,4009.76 6518.87,3891.13C6518.87,3891.13 7001.93,3920.75 6414.42,5301.93C6414.42,5301.93 6186.48,5641.85 5846.28,5335.31Z" style="fill:rgb(26,26,26);stroke:black;stroke-width:41.67px;"/>
        <path d="M5121.9,8359.24C5121.9,8359.24 5552.39,8695.85 5661.56,8698.32C5741.08,8700.12 6015.35,8639.9 6005.99,8312.46" style="fill:none;stroke:rgb(26,26,26);stroke-width:41.67px;"/>
        <path d="M2456.15,6976.64L2492.08,7299.96L2602.84,7665.2L2692.66,8060.37L2695.4,8513.97L2129.43,7832.47L2093.91,7668.19L2078.94,7503.54L2102.89,7362.36L2156.37,7147.17L2456.15,6976.64Z" style="fill:rgb(26,26,26);stroke:rgb(26,26,26);stroke-width:22.4px;"/>
        <path d="M2692.66,6811.55L2668.94,7077.4L2642.6,7218.7L2692.66,7331.27L2752.77,7498.91L2819.83,7652.19L2841.38,8195.86L2846.17,8459.31L2848.09,8698.33L3320.38,9280.79L3308.41,9139.48L3267.69,8950.28L3244.2,8775.44L3205.42,8545.36L3176.68,8377.88L3140.76,8203.04L3128.78,8037.79L3114.41,7847.18L3109.62,7728.83L3112.02,7393.53L3076.09,7254.63L2992.27,7106.14L2951.55,6995.97L2918.02,6821.13L2941.97,6725.33L2961.13,6639.11L2692.66,6811.55Z" style="fill:rgb(26,26,26);stroke:rgb(26,26,26);stroke-width:22.4px;"/>
        <path d="M3141.5,6481.33L3109.31,6639.11L3101.65,6790.95L3109.31,6892.12L3136.9,6990.22C3136.9,6990.22 3196.68,7122.04 3199.74,7137.36C3202.81,7152.69 3244.2,7321.3 3244.2,7321.3L3244.2,7908.36L3267.19,8067.77L3296.31,8175.07L3336.16,8355.94C3336.16,8355.94 3349.96,8449.44 3353.02,8464.76C3356.09,8480.09 3406.67,8602.72 3406.67,8602.72L3448.06,8843.36L3437.33,9011.97L3463.39,9172.92L3486.38,9295.54L3619.73,9572.98L3745.42,9674.14L3895.63,9793.7L3932.42,9856.54L3950.81,9934.71L3950.81,9963.84L4231.32,9710.93L4284.96,9638.89L4297.23,9563.78L4266.57,9488.67L4204.59,9470.28L4153.14,9430.43L4120.95,9393.26L4084.17,9287.88L4035.12,9185.18L4001.4,9070.22L3950.81,8719.21L3924.76,8604.25L3924.76,8490.82L3889.5,8375.86L3875.71,8294.63L3857.31,8194.99L3837.39,8096.89L3823.59,8034.05L3811.33,7916.02L3799.07,7773.48L3783.74,7644.72L3771.48,7568.08L3742.35,7505.24L3739.29,7381.08L3733.16,7224.73L3727.03,7109.78L3714.76,7021.65L3700.97,6953.43L3699.44,6882.92L3699.44,6708.18L3681.04,6639.11L3679.51,6511.99L3682.58,6358.71L3714.76,6242.21L3756.15,6047.55L3773.01,5989.3L3760.75,5946.38L3636.59,6079.74L3581.93,6179.37L3538.49,6318.85L3521.63,6458.34L3521.63,6568.7L3553.82,6692.86L3581.93,6890.59L3556.89,7097.51L3552.29,7255.39L3581.93,7351.96L3598.27,7560.42L3612.07,7733.62L3644.26,7847.18L3677.98,7991.09L3713.23,8098.43L3720.89,8155.14L3754.62,8277.76L3792.94,8596.59L3799.07,8740.67L3811.33,8976.72C3811.33,8976.72 3822.06,9108.54 3822.06,9122.33C3822.06,9136.13 3848.12,9214.3 3857.31,9232.69C3866.51,9251.09 3912.49,9343.06 3912.49,9343.06L3970.74,9393.26L4035.12,9425.83L4105.63,9462.61L4131.68,9490.2L4136.28,9533.12L4070.37,9546.92L4007.53,9549.98L3972.27,9548.45L3924.76,9531.59L3855.78,9496.34L3756.15,9373.71L3693.31,9290.94L3685.64,9235.76L3656.52,9085.55L3653.45,8952.19L3651.92,8851.03L3661.12,8774.39L3635.06,8473.96L3625.86,8403.45L3595.21,8262.44L3581.93,8207.26L3506.3,7945.15L3495.57,7880.77L3484.85,7787.27L3464.92,7468.45L3464.92,7414.8L3454.19,7301.37L3471.05,7021.65L3466.45,6953.43L3437.33,6867.59L3423.53,6794.02L3391.34,6590.16L3389.81,6439.94L3400.54,6288.2L3141.5,6481.33Z" style="fill:rgb(26,26,26);stroke:rgb(26,26,26);stroke-width:22.4px;"/>
        <path d="M1861.2,7518.49L1849.08,7292.36L1855.07,7127.71L1741.31,6897.19L1664.52,6769.14L1507.96,6956.26L1489.84,7021.65L1513.88,7095.08L1861.2,7518.49Z" style="fill:rgb(26,26,26);stroke:rgb(26,26,26);stroke-width:22.4px;"/>
        <path d="M1912.1,6472.37L2025.72,6699.61L2079.6,6870.25L2139.48,7021.65L2154.45,7147.17L2453.82,6978.02L2438.85,6918.15L2375.98,6702.6L2310.12,6540.94L2208.33,6319.4L2135.36,6197.2L1912.1,6472.37Z" style="fill:rgb(26,26,26);stroke:rgb(26,26,26);stroke-width:22.4px;stroke-linecap:square;"/>
        <path d="M2419.29,5863.89L2629.49,5609.22L2687.33,5702.69L2740.56,5915.25L2851.99,6175.7L2893.9,6328.38L2959.76,6546.92L2944.79,6627.01L2872.94,6741.52L2740.56,6813.37L2702.3,6816.36L2708.29,6567.88L2645.42,6343.35L2558.6,6148.76L2453.82,5946.38L2419.29,5863.89Z" style="fill:rgb(26,26,26);stroke:rgb(26,26,26);stroke-width:22.4px;"/>
        <path d="M2859.36,5229.68L2988.09,5460.2L3044.97,5612.88L3137.78,5819.45L3149.75,6008.05L3197.65,6112.83L3230.58,6187.68L3233.58,6313.41L3209.63,6415.2L3302.43,6418.19L3401.23,6271.5L3461.1,6175.7L3452.12,5828.43L3404.22,5454.21L3335.37,5280.57L3227.59,5121.9L3134.78,4984.19L2859.36,5229.68Z" style="fill:rgb(26,26,26);stroke:rgb(26,26,26);stroke-width:22.4px;"/>
        <path d="M4453.2,7214.97L4435.96,7301.19L4416.8,7324.18L4384.23,7354.84L4336.33,7410.4L4257.77,7425.73L4156.23,7352.92L4133.23,7306.94L4106.41,7257.13L4056.6,7209.23L4031.69,7168.99L3979.95,7092.35L4001.03,7052.11L4123.65,7004.21L4279.81,6981.22L4355.49,7000.38L4397.64,7052.11L4453.2,7147.17L4453.2,7214.97Z" style="fill:rgb(38,38,38);stroke:black;stroke-width:3.45px;"/>
        <path d="M4453.2,7214.97L4395.73,7201.56L4334.41,7191.98L4263.52,7222.64L4200.29,7270.54L4148.56,7285.86L4108.33,7228.39L4106.41,7128.75L4161.97,7069.36L4242.45,7052.11L4309.51,7055.94L4412.97,7124.92L4434.05,7170.9L4453.2,7214.97Z" style="stroke:black;stroke-width:3.45px;"/>
        <path d="M5082.53,8376.31L4932.84,8279.01L4805.61,8211.65L4663.4,8226.62L4509.98,8350.11L4453.2,8409.99L4431.39,8505.41L4453.2,8698.36L4495.01,8874.02L4539.91,9001.25L4513.72,9019.96L4453.2,8877.76L4408.94,8698.36L4386.48,8505.41L4371.51,8428.7L4356.55,8372.57L4322.87,8505.41L4337.84,8638.26L4375.26,8832.85L4453.2,9008.74L4517.46,9094.81L4566.11,9203.33L4644.69,9274.43L4689.6,9397.92L4719.54,9450.31L4700.82,9495.22L4397.71,9319.34L4405.19,9203.33L4367.77,9046.16L4334.09,8859.05L4315.38,8698.36L4279.81,8544.71L4279.81,8395.02L4322.87,8189.2L4382.74,8088.16L4453.2,8002.09L4453.2,7957.19L4517.46,7916.02L4614.76,7938.48L4719.54,8013.32L4824.32,8073.19L4966.53,8177.97L5027.49,8252.82L5075.04,8312.46L5082.53,8376.31Z" style="fill:rgb(26,26,26);stroke:rgb(38,38,38);stroke-width:3.45px;"/>
        <path d="M5209.76,8776.72L5027.49,8765.5L4929.1,8817.89L4820.57,8866.53L4681.17,8941.38L4625.98,9031.19L4644.69,9150.94L4642.84,9139.07L4577.33,8911.44L4573.59,8795.43L4614.76,8656.97L4738.25,8505.41L4861.74,8421.22L4966.53,8424.96L5082.53,8443.67L5176.08,8505.41L5209.76,8619.55L5217.24,8705.62L5209.76,8776.72Z" style="fill:rgb(26,26,26);stroke:rgb(38,38,38);stroke-width:3.45px;"/>
        <path d="M5217.24,9053.64L5121.9,9016.22L4966.53,9087.32L4850.51,9150.94L4771.93,9233.27L4734.51,9300.63L4753.22,9416.63L4764.44,9495.22L4775.67,9551.35L4861.74,9454.05L4895.42,9345.53L5082.53,9308.11L5168.6,9285.66L5217.24,9244.49L5217.24,9053.64Z" style="fill:rgb(26,26,26);stroke:rgb(38,38,38);stroke-width:3.45px;"/>
        <path d="M4536.17,7755.11L4528.69,7713.94L4543.65,7669.04L4573.59,7639.1L4573.59,7564.26L4491.26,7500.64L4364.03,7519.35L4279.81,7590.45L4210.6,7579.23L4161.95,7414.57L4146.98,7324.76L4106.41,7238.69L4106.41,7530.58L4161.95,7635.36L4169.44,7717.69L4158.21,7847.18L4143.24,7916.02L4154.47,8061.97L4154.47,8256.56L4229.31,8177.97L4221.83,7957.19L4244.28,7847.18L4337.84,7740.14L4401.45,7691.49L4453.2,7691.49L4536.17,7755.11Z" style="fill:rgb(26,26,26);stroke:rgb(38,38,38);stroke-width:3.45px;"/>
        <path d="M5070.28,5920.66L4975.88,6015L4966.53,6157.2L4902.9,6318.11L4846.77,6501.48L4831.8,6684.85L4783.15,6886.92L4813.09,7059.06L4887.93,7148.88L5048.85,7451.99L5157.37,7650.33L5292.09,7949.7L5373.39,8204.17L5438.03,8436.18L5449.26,8537.22L5438.03,8567.16L5426.63,8395.26L5329.93,8213.39L5285.86,8075.44L5197.73,7897.25L5145.99,7784.21L4864.34,7345.44L4766.63,7186.42L4638.26,7021.65L4544.37,6904.77L4617.18,6605.87L4674.66,6569.47L4703.4,6471.75L4728.31,6337.63L4831.77,6144.12L4872.01,6032.99L4966.53,5900.79L5048.28,5827.98L5046.36,5760.92L5000.38,5782L4858.6,5896.96L4822.19,6000.42L4686.16,6199.68L4634.42,6335.72L4548.2,6525.4L4484.98,6632.7L4431.33,6759.15L4385.35,6828.13L4387.26,6893.27L4444.74,6958.41L4475.4,6985.24L4473.48,7044.64L4435.16,7021.65L4379.6,6958.41L4340,6960.33L4299.13,6956.5L4274.22,6881.78L4272.3,6778.31L4251.23,6663.35L4295.29,6542.65L4389.18,6370.2L4573.59,6144.12L4634.42,6071.31L4621.01,6126.88L4513.72,6270.57L4463.9,6341.47L4393.01,6429.6L4340,6515.82L4340,6751.49L4419.83,6649.94L4425.58,6559.89L4454.32,6439.18L4532.88,6322.31L4621.01,6172.86L4668.91,6098.14L4707.23,6006.17L4804.95,5893.12L4852.85,5835.64L4966.53,5747.51L5040.61,5707.27L5079.48,5710.95L5070.28,5920.66Z" style="fill:rgb(26,26,26);stroke:rgb(26,26,26);stroke-width:3.45px;"/>
        <path d="M4608.04,7170.39L4678.55,7300.68L4753.66,7403.38L4821.1,7467.76L4897.74,7562.79L4966.53,7654.76L5093.94,7847.18L5106.82,7892.34L5153.72,7952.12L5188.97,8037.95L5207.36,8123.79L5224.22,8185.1L5240.1,8287.8L5279.4,8372.1L5297.8,8427.28L5290.13,8441.08L5267.14,8419.62L5215.03,8319.99L5195.1,8231.09L5164.44,8146.78L5106.82,8042.55L5038.76,7933.72L4966.53,7811.1L4914.6,7723.73L4870.15,7653.22L4802.71,7584.25L4759.79,7507.61L4678.55,7389.58L4627.97,7303.75L4600.38,7219.44L4608.04,7170.39Z" style="fill:rgb(26,26,26);stroke:rgb(26,26,26);stroke-width:3.45px;"/>
        <path d="M4445.57,7231.7L4496.15,7303.75L4551.33,7455.49L4600.38,7561.26L4632.57,7650.16L4703.07,7754.39L4744.46,7847.18L4877.81,7953.65L4928.4,8019.56L4991.24,8108.46L5069.41,8186.64L5127.66,8269.41L5149.12,8333.78L5156.78,8381.3L5179.77,8358.31L5185.9,8332.25L5165.98,8252.55L5106.82,8169.78L5060.22,8097.73L4949.09,7964.38L4894.67,7883.14L4821.1,7805.74L4788.91,7722.2L4736.8,7667.02L4678.55,7614.9L4615.7,7483.08L4560.52,7363.53L4505.34,7230.17L4456.29,7193.39" style="fill:rgb(26,26,26);stroke:rgb(26,26,26);stroke-width:3.45px;"/>
        <path d="M4561.79,5430.73L4465.99,5499.58L4424.08,5589.39L4373.19,5685.19L4316.3,5718.12C4316.3,5718.12 4238.47,5831.89 4205.54,5858.83C4172.61,5885.77 4133.69,5972.59 4133.69,5972.59L4124.7,6038.45L4259.42,5855.84L4361.21,5772.01L4480.96,5658.25L4537.84,5529.52L4600.71,5469.64L4606.7,5526.53L4561.79,5592.39L4690.52,5493.59L4753.39,5463.66L4702.5,5541.49L4591.73,5604.36L4489.94,5712.14L4364.2,5831.89L4295.35,5942.65L4271.4,6134.25L4238.47,6236.04L4175.6,6301.9L4133.69,6373.75L4085.79,6454.58L4043.87,6589.3C4043.87,6589.3 4013.94,6691.09 4013.94,6718.03C4013.94,6744.97 4010.94,6792.87 4010.94,6792.87L3992.98,6840.77L3969.03,6924.6L3927.12,6822.81L3873.23,6682.11L3885.21,6565.35L3876.22,6385.73L3930.11,6259.99L3986.99,6131.26L4067.82,5945.65L4115.72,5837.87L4187.57,5721.12L4319.3,5565.44L4361.21,5514.55L4457.01,5442.7L4561.79,5373.84L4561.79,5430.73Z" style="fill:rgb(26,26,26);stroke:rgb(26,26,26);stroke-width:3.81px;"/>
        <path d="M5080.09,5707.27L5331.56,5640.8L5578.24,5707.27L5707.57,5837.19L5838.91,5980.89L5950.53,6158.11L6147.72,6344.92L6289.56,6538.92L6315.9,6730.52L6335.06,6855.06L6270.4,6888.59L6179.39,6970.02L6196.15,6902.96L6228.55,6831.11L6228.55,6668.25L6119.51,6491.02L6014.13,6323.37L5930.31,6217.99L5838.91,6081.48L5650.09,5940.17L5561.48,5940.17L5654.88,6028.78L5999.76,6471.86L6088.38,6639.51L6071.61,7021.65L5999.76,7290.94L5915.94,7523.26L5894.38,7698.09L5862.09,7923.22L5913.54,8289.66L5889.59,8184.28L5862.09,8050.16L5838.91,7939.99L5838.91,7619.06L5862.09,7477.75L5918.33,7331.66L5950.53,7092.16L5985.39,6922.12L5950.53,6811.95L5908.75,6725.73L5838.91,6553.29L5779.49,6383.24L5630.93,6208.41L5532.74,6126.98L5554.29,6232.36L5640.51,6344.92L5738.71,6517.36L5779.49,6706.57L5838.91,6893.38L5862.09,7195.15L5838.91,7322.08L5808.16,7523.26L5779.49,7743.6L5808.16,7932.8L5838.91,8153.14L5903.96,8418.98L5950.53,8512.39L5918.33,8567.16L5891.99,8471.67L5862.09,8351.92L5805.77,8143.56L5779.49,8033.39L5741.1,7765.15L5748.29,7489.73L5721.94,7243.05L5714.76,6955.65L5695.6,6814.34L5676.44,6603.58L5578.24,6383.24L5506.4,6239.54L5411.26,6146.14L5374.67,6117.4L5411.26,6237.15L5449.26,6323.37L5504,6447.91L5595.01,6641.9L5618.96,6785.6L5609.38,7082.58L5618.96,7269.39L5652.49,7453.8L5676.44,7678.93L5705.18,7920.83L5748.29,8126.8L5779.49,8244.15L5838.91,8404.61L5862.09,8567.16L5882.41,8610.58L5838.91,8646.51L5815.35,8567.16L5779.49,8392.64L5753.08,8294.44L5721.94,8189.07L5702.78,8057.34L5662.07,7887.3L5650.09,7810.66L5635.72,7743.6L5616.56,7638.22L5595.01,7540.02L5585.43,7434.64L5571.06,7329.26L5554.29,7238.26L5520.77,7104.14L5494.42,7021.65L5484.84,6886.19L5477.65,6778.42L5449.26,6658.67L5411.26,6548.5L5411.26,6402.4L5367.48,6301.81L5307.61,6285.05L5290.85,6332.95L5336.35,6392.82L5336.35,6426.35L5317.19,6560.47L5310.01,6622.74L5360.3,6754.47L5372.28,6843.08L5411.26,6996.36L5449.26,7108.93L5515.98,7281.36L5554.29,7475.36L5575.85,7616.66L5587.82,7753.18L5642.91,8035.79L5690.81,8210.62L5745.89,8402.22L5779.49,8593.82L5779.49,8663.27L5743.5,8601L5724.34,8495.62L5676.44,8299.24L5635.72,8179.49L5602.19,8028.6L5583.03,7961.54L5549.5,7779.52L5523.16,7568.76L5487.23,7355.61L5411.26,7137.22L5355.51,7021.65L5374.67,7137.22L5411.26,7326.87L5449.26,7525.65L5470.47,7640.61L5530.34,7947.17L5544.71,8078.9L5602.19,8227.39L5645.3,8349.53L5700.39,8591.42L5719.55,8670.46L5690.81,8696.8L5674.04,8656.09L5652.49,8526.76L5616.56,8380.66L5568.66,8258.52L5523.16,8143.56L5489.63,8033.39L5449.26,7847.18L5449.26,7731.62L5411.26,7645.4L5381.86,7504.1L5321.98,7238.26L5290.85,7075.4L5269.29,6970.02C5269.29,6970.02 5240.55,6862.24 5230.97,6821.53C5221.39,6780.81 5216.6,6759.26 5216.6,6759.26L5185.47,6577.24L5235.76,6481.44L5252.53,6414.38L5219,6383.24L5204.63,6309L5235.76,6239.54L5250.13,6141.35L5257.32,6033.57L5197.44,6086.27L5154.33,6234.75L5132.78,6419.17L5096.85,6526.94L5135.17,6802.37L5166.31,6936.49L5219,7336.45L5262.11,7480.15L5336.35,7643.01L5360.3,7777.13L5411.26,7966.33L5449.26,8112.43L5506.4,8263.31L5595.01,8524.36L5635.72,8680.04L5506.4,8620.16L5494.42,8526.76L5482.44,8380.66L5449.26,8201.04L5369.88,8031L5314.8,7847.18L5276.48,7719.65L5233.37,7571.16L5125.59,7377.16L5058.53,7216.7L4966.53,7044.26L4933.99,6764.05L4938.78,6522.15L5010.63,6313.79L5063.32,6167.69L5068.11,6012.02L5080.09,5707.27L4864.16,5484.61L4795.3,5577.42L4645.61,5667.23L4510.9,5775.01L4415.1,5930.68L4313.31,6113.3L4349.23,6176.16L4406.12,6149.22L4528.86,6053.42L4615.68,5906.73L4666.57,5763.03L4804.28,5682.2L4900.08,5649.27L4983.02,5700.05L5077.76,5707.27L5330.25,5640.8L5328.19,5607.36L5328.19,5412.76L5313.22,5269.06L5268.31,5239.13L5286.27,5068.48L5343.15,4906.82L5325.19,4769.11L5259.33,4643.37L5073.72,4209.28L5034.8,4095.52L4966.53,4002.71L4927.03,3951.82L4858.17,3957.81L4702.5,4092.53L4636.63,4215.27L4648.61,4367.95L4705.49,4466.74L4786.32,4673.31L4813.26,4903.83L4831.23,5095.43L4867.15,5224.16C4867.15,5224.16 4897.09,5299 4900.08,5331.93C4903.08,5364.86 4894.1,5445.69 4894.1,5445.69L4864.16,5484.61" style="fill:rgb(26,26,26);stroke:rgb(26,26,26);stroke-width:3.81px;"/>
        <path d="M4419.98,4246.21L4568.25,4783.51L4535.5,5064.17L4502.76,5185.79L4367.11,4652.53L4236.23,4354.46L4419.98,4246.21Z" style="fill:rgb(26,26,26);stroke:rgb(26,26,26);stroke-width:3.81px;"/>
    </g>
    <g>
        <path d="M4003.43,3844.97L4966.53,2694.46L5977.21,3901.79" style="fill:none;stroke:black;stroke-width:145.83px;"/>
        <path d="M6888.21,4990.05L8588.89,7021.65L6676.98,9305.58" style="fill:none;stroke:black;stroke-width:145.83px;"/>
        <path d="M5291,10961.2L4966.53,11348.8L1344.18,7021.65L3134.65,4882.79" style="fill:none;stroke:black;stroke-width:145.83px;"/>
    </g>
    <g transform="matrix(1.06482,0,0,1.06482,-321.921,-455.13)">
        <path d="M5462.45,10756.4L4966.53,11348.8L1344.18,7021.65L3249.95,4745.07" style="fill:none;stroke:black;stroke-width:58.7px;"/>
        <path d="M3876.6,3996.48L4966.53,2694.46L6070.92,4013.73" style="fill:none;stroke:black;stroke-width:58.7px;"/>
        <path d="M6798.42,4882.79L8588.89,7021.65L6536.77,9473.07" style="fill:none;stroke:black;stroke-width:58.7px;"/>
    </g>
    <path d="M4453.2,7214.97C4453.2,7214.97 4309.82,6868.52 4106.41,7128.75C4106.41,7128.75 4061.53,7207.86 4143.94,7285.86C4143.94,7285.86 4274.21,7179.07 4337.78,7193.39L4453.2,7214.97Z" style="stroke:black;stroke-width:41.67px;"/>
    <path d="M6257.37,9194.61C5296.17,8854.67 5050.17,9606.9 5050.17,9606.9C5050.17,9606.9 4699.34,10016.2 5015.08,10092.2L4966.53,10075.7C4966.53,10075.7 4830.61,10639.2 5252.13,10821.6C5252.13,10821.6 5653.97,11043.2 5983.52,10852.9C5982.02,10856.5 6157.33,10701.8 6142.96,10511.1C6142.96,10511.1 6380.54,10313.5 6382.07,9934.74C6382.07,9934.74 6400.07,9245.08 6257.37,9194.61Z" style="fill:rgb(13,13,13);stroke:black;stroke-width:33.33px;"/>
    <path d="M5322.91,9428.23C5322.91,9428.23 5175.76,9558.52 5226.34,9721" style="fill:none;stroke:black;stroke-width:33.33px;"/>
    <path d="M5713.77,9555.45C5713.77,9555.45 5854.26,9814.5 5774.06,10033.7" style="fill:none;stroke:black;stroke-width:33.33px;"/>
    <path d="M6139.89,9555.45C6139.89,9555.45 6078.58,9822.97 6139.89,9876.98" style="fill:none;stroke:black;stroke-width:33.33px;"/>
    <path d="M5404.15,9820.63C5404.15,9820.63 5270.8,9604.5 5414.88,9540.13C5414.88,9540.13 5575.82,9461.95 5650.93,9837.49C5650.93,9837.49 5672.39,10165.5 5454.73,10061.3C5454.73,10061.3 5356.63,10033.7 5404.15,9820.63Z" style="stroke:black;stroke-width:33.33px;"/>
    <g transform="matrix(1,0,0,1.08342,0,-793.192)">
        <path d="M6375.94,9679.61C6375.94,9679.61 6458.71,9537.06 6343.75,9511C6228.79,9484.94 6207.33,9636.69 6213.47,9688.81C6213.47,9688.81 6210.4,9920.09 6314.63,9934.74C6314.63,9934.74 6429.59,9937.12 6412.73,9776.18L6375.94,9679.61Z" style="stroke:black;stroke-width:31.97px;"/>
    </g>
    <path d="M6076.2,10721.5C4925.82,10772.5 5138.14,9848.21 5138.14,9848.21C5255.42,10717.6 6138.72,10519.4 6138.72,10519.4C6138.72,10519.4 6155.19,10677.3 6076.2,10721.5" style="fill:white;stroke:black;stroke-width:41.67px;"/>
    <g transform="matrix(1,0,0,1,-13.1006,84.3038)">
        <path d="M5077.66,9876.98C5077.66,9876.98 5126.71,9665.82 5224.81,9820.63" style="fill:none;stroke:black;stroke-width:33.33px;"/>
    </g>
    <path d="M4932.39,9769.76C4932.39,9769.76 4875.98,9554.23 4417.37,9345.76C4417.37,9345.76 4093.27,9141.8 4171.11,8644.84C4171.11,8644.84 4206.37,8187.45 4106.41,7955.11C4106.41,7955.11 3873.91,7478.56 3862.69,7238.69C3862.69,7238.69 3799.07,6785.52 3802.81,6658.28C3802.81,6658.28 3881.4,6325.33 3825.26,5969.73C3769.13,5614.13 3761.65,5602.9 3570.8,5471.92C3570.8,5471.92 3267.68,5191.26 3278.91,4764.65C3278.91,4764.65 3175.53,4259.46 3461.1,3930.15C3461.1,3930.15 3698.03,3713.1 3982.44,4046.16C3982.44,4046.16 4420.2,4416.63 4519.4,5311.01" style="fill:none;stroke:black;stroke-width:41.67px;"/>
    <g id="Smoke" transform="matrix(-1.94997,0,0,1.94997,9182.72,2775.46)">
        <path d="M1168.5,3427.9C1168.5,3427.9 1182.72,3399.84 1156.73,3387.71C1156.73,3387.71 1151.48,3240.78 1022.97,3247.37C1022.97,3247.37 945.784,3239.05 934.505,3313.9C934.505,3313.9 919.068,3318.75 915.949,3338.51C915.949,3338.51 879.694,3322.91 858.773,3355.83L875.13,3339.97C875.13,3339.97 874.93,3264 827.456,3263.31C827.456,3263.31 872.861,3118.35 721.777,3036.57C721.777,3036.57 633.067,2976.28 544.011,3030.68L565.704,3040.97C565.704,3040.97 436.602,2947.87 329.418,3156.63C232.345,3345.7 443.86,3494.24 484.739,3465.62C484.739,3465.62 519.438,3639.12 678.064,3549.89C678.064,3549.89 747.462,3601.11 810.252,3535.02C810.252,3535.02 869.736,3566.41 919.307,3500.32C919.307,3500.32 930.873,3533.37 1044.88,3518.5C1044.88,3518.5 1092.8,3592.85 1173.77,3574.68C1173.77,3574.68 1234.9,3632.51 1271.26,3591.2C1271.26,3591.2 1279.32,3635.81 1373.6,3596.16C1373.6,3596.16 1421.62,3606.07 1434.84,3604.42C1434.84,3604.42 1453.89,3633.59 1483.7,3625.78C1483.7,3625.78 1417.88,3575.04 1420.18,3570.43C1420.18,3570.43 1380.44,3573.6 1349.6,3505.61C1349.6,3505.61 1296.49,3455.28 1238.97,3511.77L1261.04,3494.83C1261.04,3494.83 1221.76,3402.96 1133.28,3434.49" style="fill:rgb(204,204,204);"/>
        <clipPath id="_clip1">
            <path d="M1168.5,3427.9C1168.5,3427.9 1182.72,3399.84 1156.73,3387.71C1156.73,3387.71 1151.48,3240.78 1022.97,3247.37C1022.97,3247.37 945.784,3239.05 934.505,3313.9C934.505,3313.9 919.068,3318.75 915.949,3338.51C915.949,3338.51 879.694,3322.91 858.773,3355.83L875.13,3339.97C875.13,3339.97 874.93,3264 827.456,3263.31C827.456,3263.31 872.861,3118.35 721.777,3036.57C721.777,3036.57 633.067,2976.28 544.011,3030.68L565.704,3040.97C565.704,3040.97 436.602,2947.87 329.418,3156.63C232.345,3345.7 443.86,3494.24 484.739,3465.62C484.739,3465.62 519.438,3639.12 678.064,3549.89C678.064,3549.89 747.462,3601.11 810.252,3535.02C810.252,3535.02 869.736,3566.41 919.307,3500.32C919.307,3500.32 930.873,3533.37 1044.88,3518.5C1044.88,3518.5 1092.8,3592.85 1173.77,3574.68C1173.77,3574.68 1234.9,3632.51 1271.26,3591.2C1271.26,3591.2 1279.32,3635.81 1373.6,3596.16C1373.6,3596.16 1421.62,3606.07 1434.84,3604.42C1434.84,3604.42 1453.89,3633.59 1483.7,3625.78C1483.7,3625.78 1417.88,3575.04 1420.18,3570.43C1420.18,3570.43 1380.44,3573.6 1349.6,3505.61C1349.6,3505.61 1296.49,3455.28 1238.97,3511.77L1261.04,3494.83C1261.04,3494.83 1221.76,3402.96 1133.28,3434.49"/>
        </clipPath>
        <g clip-path="url(#_clip1)">
            <g transform="matrix(0.973452,0,0,0.973452,13.4732,76.845)">
                <path d="M374.035,3439.23C422.703,3477.45 511.68,3476.44 511.68,3476.44C511.68,3476.44 519.438,3639.12 678.064,3549.89C678.064,3549.89 747.462,3601.11 810.252,3535.02C810.252,3535.02 869.736,3566.41 919.307,3500.32C919.307,3500.32 967.374,3532.5 1081.39,3517.63C1081.39,3517.63 1092.8,3592.85 1173.77,3574.68C1173.77,3574.68 1234.9,3632.51 1271.26,3591.2C1271.26,3591.2 1279.32,3635.81 1373.6,3596.16C1373.6,3596.16 1421.62,3606.07 1434.84,3604.42C1434.84,3604.42 1453.89,3633.59 1483.7,3625.78" style="fill:none;stroke:rgb(115,115,115);stroke-width:17.56px;"/>
            </g>
            <path d="M557.931,3076.53C557.931,3076.53 443.632,3026.62 378.578,3151.83C378.578,3151.83 296.605,3274.5 421.813,3340.49C421.813,3340.49 453.115,3341.33 486.109,3292.26C486.109,3292.26 492.031,3202.59 532.639,3159.44C532.639,3159.44 574.762,3102.76 557.931,3076.53Z" style="fill:white;stroke:white;stroke-width:4.27px;"/>
            <path d="M571.162,3379.54C571.162,3379.54 619.215,3502.66 740.363,3427.9C740.363,3427.9 812.397,3472.94 830.863,3394.43" style="fill:none;"/>
            <clipPath id="_clip2">
                <path d="M571.162,3379.54C571.162,3379.54 619.215,3502.66 740.363,3427.9C740.363,3427.9 812.397,3472.94 830.863,3394.43"/>
            </clipPath>
            <g clip-path="url(#_clip2)">
                <g transform="matrix(1,0,0,1,0,-7)">
                    <path d="M571.162,3379.54C571.162,3379.54 619.215,3502.66 740.363,3427.9C740.363,3427.9 812.397,3472.94 830.863,3394.43" style="fill:none;stroke:rgb(115,115,115);stroke-width:12.82px;"/>
                </g>
            </g>
            <path d="M571.162,3379.54C571.162,3379.54 619.215,3502.66 740.363,3427.9C740.363,3427.9 812.397,3472.94 830.863,3394.43" style="fill:none;stroke:black;stroke-width:8.55px;"/>
            <g transform="matrix(0.962808,0,0,0.886631,30.7491,366.833)">
                <path d="M826.763,3180.5C844.898,3283.56 723.714,3273.62 723.249,3273.62C722.556,3273.62 715.324,3330.28 655.03,3321.6C655.03,3321.6 620.655,3391.76 551.839,3340.82C551.839,3340.82 476.044,3281.5 561.289,3222.94" style="fill:none;stroke:rgb(115,115,115);stroke-width:13.85px;"/>
            </g>
            <path d="M826.763,3263.31C795.977,3254.19 732.149,3285.83 731.684,3285.83C730.991,3285.83 725.447,3333.33 665.152,3324.66C665.152,3324.66 620.655,3391.76 551.839,3340.82C551.839,3340.82 479.904,3282.95 565.149,3224.39" style="fill:none;stroke:black;stroke-width:8.55px;"/>
            <g transform="matrix(1,0,0,1,-9,-14)">
                <path d="M634.443,3173.63C634.443,3173.63 622.599,3200.19 653.055,3181.92C653.055,3181.92 700.431,3201.54 711.937,3153.49C711.937,3153.49 772.849,3191.86 754.576,3118.08" style="fill:none;stroke:rgb(115,115,115);stroke-width:17.09px;"/>
            </g>
            <path d="M612.447,3160.94C612.447,3160.94 622.599,3200.19 653.055,3181.92C653.055,3181.92 700.431,3201.54 711.937,3153.49C711.937,3153.49 776.233,3177.86 757.96,3104.08" style="fill:none;stroke:black;stroke-width:8.55px;"/>
            <g transform="matrix(0.933813,0,0,0.921564,81.4127,246.192)">
                <path d="M898.354,3383.92C898.354,3383.92 885.33,3427.45 968.945,3403.56C968.945,3403.56 1001.32,3479.6 1077.12,3427.13" style="fill:none;stroke:rgb(115,115,115);stroke-width:13.82px;"/>
            </g>
            <path d="M911.002,3373.45C911.002,3373.45 928.598,3411.44 978.005,3399.89C978.005,3399.89 1023.35,3468.23 1099.15,3415.77" style="fill:none;stroke:black;stroke-width:8.55px;"/>
            <path d="M1039.92,3340.71C1039.92,3340.71 958.163,3320.68 987.401,3281.16C987.401,3281.16 1011.77,3253 1078.9,3283.32C1078.9,3283.32 1117.89,3301.19 1126.01,3360.75C1126.01,3360.75 1126.44,3400.27 1099.15,3397.02C1099.15,3397.02 1048.58,3403.52 1039.92,3340.71Z" style="fill:white;stroke:white;stroke-width:4.27px;"/>
            <path d="M574.4,3072.43L585.229,3075.82C585.229,3075.82 582.522,3117.1 602.826,3115.75C602.826,3115.75 598.088,3159.06 631.928,3151.62C631.928,3151.62 682.012,3156.36 688.103,3134.02C688.103,3134.02 734.802,3139.43 726.681,3096.8C718.559,3054.16 712.468,3045.36 698.255,3044.68C698.255,3044.68 659,3022.35 640.05,3038.59C640.05,3038.59 595.381,3034.53 592.674,3047.39C592.674,3047.39 559.511,3050.77 574.4,3072.43Z" style="fill:white;stroke:white;stroke-width:4.27px;"/>
            <g transform="matrix(0.86122,0,0,1.02083,96.0049,-67.635)">
                <path d="M667.122,3222.68C667.122,3222.68 556.803,3207.79 562.218,3261.26C562.218,3261.26 545.975,3318.11 603.503,3310.67C603.503,3310.67 644.599,3302.54 649.092,3289.01C649.092,3289.01 705.023,3297.81 715.852,3253.81C715.852,3253.81 762.551,3263.29 776.087,3224.71C776.087,3224.71 790.3,3188.84 761.197,3181.4C761.197,3181.4 689.456,3189.52 667.122,3222.68Z" style="fill:white;stroke:white;stroke-width:4.53px;"/>
            </g>
            <path d="M554.25,3417.97C554.25,3417.97 529.328,3476.99 612.447,3507.31C612.447,3507.31 633.842,3509.47 648.461,3496.48C648.461,3496.48 678.24,3505.14 726.97,3492.15C726.97,3492.15 771.368,3514.89 819.015,3481.86C819.015,3481.86 847.711,3490.53 855.292,3484.57C855.292,3484.57 866.003,3452.62 893.946,3451.54C893.946,3451.54 913.011,3448.29 934.505,3458.58C934.505,3458.58 989.028,3493.23 1045.88,3461.29C1045.88,3461.29 972.243,3453.71 964.663,3423.93C964.663,3423.93 908.777,3421.76 893.946,3395.23C893.946,3395.23 872.076,3374.12 864.496,3383.86C864.496,3383.86 867.203,3432.59 846.629,3441.8C846.629,3441.8 806.316,3477.53 761.229,3467.24C761.229,3467.24 739.423,3454.25 713.434,3471.58C713.434,3471.58 655.5,3481.32 637.091,3468.33C637.091,3468.33 591.068,3488.36 554.25,3417.97Z" style="fill:white;stroke:white;stroke-width:4.27px;"/>
            <path d="M787.07,3292.15C787.07,3292.15 763.247,3340 741.048,3342.71C741.048,3342.71 725.346,3360.87 690.152,3359.91C690.152,3359.91 620.848,3371.02 645.754,3404.51C645.754,3404.51 689.069,3426.37 739.423,3381.29C739.423,3381.29 786.322,3408.5 826.763,3381.29C826.763,3381.29 858.54,3342.71 850.419,3330.26C850.419,3330.26 862.666,3310.77 826.763,3298.86C826.763,3298.86 825.512,3282.2 787.07,3292.15Z" style="fill:white;stroke:white;stroke-width:4.27px;"/>
            <path d="M1109.49,3472.7C1109.49,3472.7 1119.23,3443.46 1195.03,3458.62C1195.03,3458.62 1246.47,3471.08 1223.19,3506.81C1223.19,3506.81 1170.13,3516.56 1156.05,3524.68C1156.05,3524.68 1091.08,3516.56 1109.49,3472.7Z" style="fill:white;stroke:white;stroke-width:6.41px;"/>
            <path d="M1280.12,3515.14C1280.12,3515.14 1314.77,3516.24 1336.67,3527.06C1358.57,3537.87 1343.88,3550.34 1328.91,3552.28C1328.91,3552.28 1275.68,3563.37 1264.87,3555.06C1264.87,3555.06 1220.52,3540.6 1253.78,3524.68L1280.12,3515.14Z" style="fill:white;stroke:white;stroke-width:6.41px;"/>
        </g>
        <path d="M1168.5,3427.9C1168.5,3427.9 1182.72,3399.84 1156.73,3387.71C1156.73,3387.71 1151.48,3240.78 1022.97,3247.37C1022.97,3247.37 945.784,3239.05 934.505,3313.9C934.505,3313.9 919.068,3318.75 915.949,3338.51C915.949,3338.51 879.694,3322.91 858.773,3355.83L875.13,3339.97C875.13,3339.97 874.93,3264 827.456,3263.31C827.456,3263.31 872.861,3118.35 721.777,3036.57C721.777,3036.57 633.067,2976.28 544.011,3030.68L565.704,3040.97C565.704,3040.97 436.602,2947.87 329.418,3156.63C232.345,3345.7 443.86,3494.24 484.739,3465.62C484.739,3465.62 519.438,3639.12 678.064,3549.89C678.064,3549.89 747.462,3601.11 810.252,3535.02C810.252,3535.02 869.736,3566.41 919.307,3500.32C919.307,3500.32 930.873,3533.37 1044.88,3518.5C1044.88,3518.5 1092.8,3592.85 1173.77,3574.68C1173.77,3574.68 1234.9,3632.51 1271.26,3591.2C1271.26,3591.2 1279.32,3635.81 1373.6,3596.16C1373.6,3596.16 1421.62,3606.07 1434.84,3604.42C1434.84,3604.42 1453.89,3633.59 1483.7,3625.78C1483.7,3625.78 1417.88,3575.04 1420.18,3570.43C1420.18,3570.43 1380.44,3573.6 1349.6,3505.61C1349.6,3505.61 1296.49,3455.28 1238.97,3511.77L1261.04,3494.83C1261.04,3494.83 1221.76,3402.96 1133.28,3434.49" style="fill:none;stroke:black;stroke-width:8.55px;"/>
    </g>
    <g id="Smoke1" serif:id="Smoke" transform="matrix(1.94997,0,0,1.94997,2651.96,2775.46)">
        <path d="M1168.5,3427.9C1168.5,3427.9 1182.72,3399.84 1156.73,3387.71C1156.73,3387.71 1151.48,3240.78 1022.97,3247.37C1022.97,3247.37 945.784,3239.05 934.505,3313.9C934.505,3313.9 919.068,3318.75 915.949,3338.51C915.949,3338.51 879.694,3322.91 858.773,3355.83L875.13,3339.97C875.13,3339.97 874.93,3264 827.456,3263.31C827.456,3263.31 872.861,3118.35 721.777,3036.57C721.777,3036.57 633.067,2976.28 544.011,3030.68L565.704,3040.97C565.704,3040.97 436.602,2947.87 329.418,3156.63C232.345,3345.7 443.86,3494.24 484.739,3465.62C484.739,3465.62 519.438,3639.12 678.064,3549.89C678.064,3549.89 747.462,3601.11 810.252,3535.02C810.252,3535.02 869.736,3566.41 919.307,3500.32C919.307,3500.32 930.873,3533.37 1044.88,3518.5C1044.88,3518.5 1092.8,3592.85 1173.77,3574.68C1173.77,3574.68 1234.9,3632.51 1271.26,3591.2C1271.26,3591.2 1279.32,3635.81 1373.6,3596.16C1373.6,3596.16 1421.62,3606.07 1434.84,3604.42C1434.84,3604.42 1453.89,3633.59 1483.7,3625.78C1483.7,3625.78 1417.88,3575.04 1420.18,3570.43C1420.18,3570.43 1380.44,3573.6 1349.6,3505.61C1349.6,3505.61 1296.49,3455.28 1238.97,3511.77L1261.04,3494.83C1261.04,3494.83 1221.76,3402.96 1133.28,3434.49" style="fill:rgb(204,204,204);"/>
        <clipPath id="_clip3">
            <path d="M1168.5,3427.9C1168.5,3427.9 1182.72,3399.84 1156.73,3387.71C1156.73,3387.71 1151.48,3240.78 1022.97,3247.37C1022.97,3247.37 945.784,3239.05 934.505,3313.9C934.505,3313.9 919.068,3318.75 915.949,3338.51C915.949,3338.51 879.694,3322.91 858.773,3355.83L875.13,3339.97C875.13,3339.97 874.93,3264 827.456,3263.31C827.456,3263.31 872.861,3118.35 721.777,3036.57C721.777,3036.57 633.067,2976.28 544.011,3030.68L565.704,3040.97C565.704,3040.97 436.602,2947.87 329.418,3156.63C232.345,3345.7 443.86,3494.24 484.739,3465.62C484.739,3465.62 519.438,3639.12 678.064,3549.89C678.064,3549.89 747.462,3601.11 810.252,3535.02C810.252,3535.02 869.736,3566.41 919.307,3500.32C919.307,3500.32 930.873,3533.37 1044.88,3518.5C1044.88,3518.5 1092.8,3592.85 1173.77,3574.68C1173.77,3574.68 1234.9,3632.51 1271.26,3591.2C1271.26,3591.2 1279.32,3635.81 1373.6,3596.16C1373.6,3596.16 1421.62,3606.07 1434.84,3604.42C1434.84,3604.42 1453.89,3633.59 1483.7,3625.78C1483.7,3625.78 1417.88,3575.04 1420.18,3570.43C1420.18,3570.43 1380.44,3573.6 1349.6,3505.61C1349.6,3505.61 1296.49,3455.28 1238.97,3511.77L1261.04,3494.83C1261.04,3494.83 1221.76,3402.96 1133.28,3434.49"/>
        </clipPath>
        <g clip-path="url(#_clip3)">
            <g transform="matrix(0.973452,0,0,0.973452,13.4732,76.845)">
                <path d="M374.035,3439.23C422.703,3477.45 511.68,3476.44 511.68,3476.44C511.68,3476.44 519.438,3639.12 678.064,3549.89C678.064,3549.89 747.462,3601.11 810.252,3535.02C810.252,3535.02 869.736,3566.41 919.307,3500.32C919.307,3500.32 967.374,3532.5 1081.39,3517.63C1081.39,3517.63 1092.8,3592.85 1173.77,3574.68C1173.77,3574.68 1234.9,3632.51 1271.26,3591.2C1271.26,3591.2 1279.32,3635.81 1373.6,3596.16C1373.6,3596.16 1421.62,3606.07 1434.84,3604.42C1434.84,3604.42 1453.89,3633.59 1483.7,3625.78" style="fill:none;stroke:rgb(115,115,115);stroke-width:17.56px;"/>
            </g>
            <path d="M557.931,3076.53C557.931,3076.53 443.632,3026.62 378.578,3151.83C378.578,3151.83 296.605,3274.5 421.813,3340.49C421.813,3340.49 453.115,3341.33 486.109,3292.26C486.109,3292.26 492.031,3202.59 532.639,3159.44C532.639,3159.44 574.762,3102.76 557.931,3076.53Z" style="fill:white;stroke:white;stroke-width:4.27px;"/>
            <path d="M571.162,3379.54C571.162,3379.54 619.215,3502.66 740.363,3427.9C740.363,3427.9 812.397,3472.94 830.863,3394.43" style="fill:none;"/>
            <clipPath id="_clip4">
                <path d="M571.162,3379.54C571.162,3379.54 619.215,3502.66 740.363,3427.9C740.363,3427.9 812.397,3472.94 830.863,3394.43"/>
            </clipPath>
            <g clip-path="url(#_clip4)">
                <g transform="matrix(1,0,0,1,0,-7)">
                    <path d="M571.162,3379.54C571.162,3379.54 619.215,3502.66 740.363,3427.9C740.363,3427.9 812.397,3472.94 830.863,3394.43" style="fill:none;stroke:rgb(115,115,115);stroke-width:12.82px;"/>
                </g>
            </g>
            <path d="M571.162,3379.54C571.162,3379.54 619.215,3502.66 740.363,3427.9C740.363,3427.9 812.397,3472.94 830.863,3394.43" style="fill:none;stroke:black;stroke-width:8.55px;"/>
            <g transform="matrix(0.962808,0,0,0.886631,30.7491,366.833)">
                <path d="M826.763,3180.5C844.898,3283.56 723.714,3273.62 723.249,3273.62C722.556,3273.62 715.324,3330.28 655.03,3321.6C655.03,3321.6 620.655,3391.76 551.839,3340.82C551.839,3340.82 476.044,3281.5 561.289,3222.94" style="fill:none;stroke:rgb(115,115,115);stroke-width:13.85px;"/>
            </g>
            <path d="M826.763,3263.31C795.977,3254.19 732.149,3285.83 731.684,3285.83C730.991,3285.83 725.447,3333.33 665.152,3324.66C665.152,3324.66 620.655,3391.76 551.839,3340.82C551.839,3340.82 479.904,3282.95 565.149,3224.39" style="fill:none;stroke:black;stroke-width:8.55px;"/>
            <g transform="matrix(1,0,0,1,-9,-14)">
                <path d="M634.443,3173.63C634.443,3173.63 622.599,3200.19 653.055,3181.92C653.055,3181.92 700.431,3201.54 711.937,3153.49C711.937,3153.49 772.849,3191.86 754.576,3118.08" style="fill:none;stroke:rgb(115,115,115);stroke-width:17.09px;"/>
            </g>
            <path d="M612.447,3160.94C612.447,3160.94 622.599,3200.19 653.055,3181.92C653.055,3181.92 700.431,3201.54 711.937,3153.49C711.937,3153.49 776.233,3177.86 757.96,3104.08" style="fill:none;stroke:black;stroke-width:8.55px;"/>
            <g transform="matrix(0.933813,0,0,0.921564,81.4127,246.192)">
                <path d="M898.354,3383.92C898.354,3383.92 885.33,3427.45 968.945,3403.56C968.945,3403.56 1001.32,3479.6 1077.12,3427.13" style="fill:none;stroke:rgb(115,115,115);stroke-width:13.82px;"/>
            </g>
            <path d="M911.002,3373.45C911.002,3373.45 928.598,3411.44 978.005,3399.89C978.005,3399.89 1023.35,3468.23 1099.15,3415.77" style="fill:none;stroke:black;stroke-width:8.55px;"/>
            <path d="M1039.92,3340.71C1039.92,3340.71 958.163,3320.68 987.401,3281.16C987.401,3281.16 1011.77,3253 1078.9,3283.32C1078.9,3283.32 1117.89,3301.19 1126.01,3360.75C1126.01,3360.75 1126.44,3400.27 1099.15,3397.02C1099.15,3397.02 1048.58,3403.52 1039.92,3340.71Z" style="fill:white;stroke:white;stroke-width:4.27px;"/>
            <path d="M574.4,3072.43L585.229,3075.82C585.229,3075.82 582.522,3117.1 602.826,3115.75C602.826,3115.75 598.088,3159.06 631.928,3151.62C631.928,3151.62 682.012,3156.36 688.103,3134.02C688.103,3134.02 734.802,3139.43 726.681,3096.8C718.559,3054.16 712.468,3045.36 698.255,3044.68C698.255,3044.68 659,3022.35 640.05,3038.59C640.05,3038.59 595.381,3034.53 592.674,3047.39C592.674,3047.39 559.511,3050.77 574.4,3072.43Z" style="fill:white;stroke:white;stroke-width:4.27px;"/>
            <g transform="matrix(0.86122,0,0,1.02083,96.0049,-67.635)">
                <path d="M667.122,3222.68C667.122,3222.68 556.803,3207.79 562.218,3261.26C562.218,3261.26 545.975,3318.11 603.503,3310.67C603.503,3310.67 644.599,3302.54 649.092,3289.01C649.092,3289.01 705.023,3297.81 715.852,3253.81C715.852,3253.81 762.551,3263.29 776.087,3224.71C776.087,3224.71 790.3,3188.84 761.197,3181.4C761.197,3181.4 689.456,3189.52 667.122,3222.68Z" style="fill:white;stroke:white;stroke-width:4.53px;"/>
            </g>
            <path d="M554.25,3417.97C554.25,3417.97 529.328,3476.99 612.447,3507.31C612.447,3507.31 633.842,3509.47 648.461,3496.48C648.461,3496.48 678.24,3505.14 726.97,3492.15C726.97,3492.15 771.368,3514.89 819.015,3481.86C819.015,3481.86 847.711,3490.53 855.292,3484.57C855.292,3484.57 866.003,3452.62 893.946,3451.54C893.946,3451.54 913.011,3448.29 934.505,3458.58C934.505,3458.58 989.028,3493.23 1045.88,3461.29C1045.88,3461.29 972.243,3453.71 964.663,3423.93C964.663,3423.93 908.777,3421.76 893.946,3395.23C893.946,3395.23 872.076,3374.12 864.496,3383.86C864.496,3383.86 867.203,3432.59 846.629,3441.8C846.629,3441.8 806.316,3477.53 761.229,3467.24C761.229,3467.24 739.423,3454.25 713.434,3471.58C713.434,3471.58 655.5,3481.32 637.091,3468.33C637.091,3468.33 591.068,3488.36 554.25,3417.97Z" style="fill:white;stroke:white;stroke-width:4.27px;"/>
            <path d="M787.07,3292.15C787.07,3292.15 763.247,3340 741.048,3342.71C741.048,3342.71 725.346,3360.87 690.152,3359.91C690.152,3359.91 620.848,3371.02 645.754,3404.51C645.754,3404.51 689.069,3426.37 739.423,3381.29C739.423,3381.29 786.322,3408.5 826.763,3381.29C826.763,3381.29 858.54,3342.71 850.419,3330.26C850.419,3330.26 862.666,3310.77 826.763,3298.86C826.763,3298.86 825.512,3282.2 787.07,3292.15Z" style="fill:white;stroke:white;stroke-width:4.27px;"/>
            <path d="M1109.49,3472.7C1109.49,3472.7 1119.23,3443.46 1195.03,3458.62C1195.03,3458.62 1246.47,3471.08 1223.19,3506.81C1223.19,3506.81 1170.13,3516.56 1156.05,3524.68C1156.05,3524.68 1091.08,3516.56 1109.49,3472.7Z" style="fill:white;stroke:white;stroke-width:6.41px;"/>
            <path d="M1280.12,3515.14C1280.12,3515.14 1314.77,3516.24 1336.67,3527.06C1358.57,3537.87 1343.88,3550.34 1328.91,3552.28C1328.91,3552.28 1275.68,3563.37 1264.87,3555.06C1264.87,3555.06 1220.52,3540.6 1253.78,3524.68L1280.12,3515.14Z" style="fill:white;stroke:white;stroke-width:6.41px;"/>
        </g>
        <path d="M1168.5,3427.9C1168.5,3427.9 1182.72,3399.84 1156.73,3387.71C1156.73,3387.71 1151.48,3240.78 1022.97,3247.37C1022.97,3247.37 945.784,3239.05 934.505,3313.9C934.505,3313.9 919.068,3318.75 915.949,3338.51C915.949,3338.51 879.694,3322.91 858.773,3355.83L875.13,3339.97C875.13,3339.97 874.93,3264 827.456,3263.31C827.456,3263.31 872.861,3118.35 721.777,3036.57C721.777,3036.57 633.067,2976.28 544.011,3030.68L565.704,3040.97C565.704,3040.97 436.602,2947.87 329.418,3156.63C232.345,3345.7 443.86,3494.24 484.739,3465.62C484.739,3465.62 519.438,3639.12 678.064,3549.89C678.064,3549.89 747.462,3601.11 810.252,3535.02C810.252,3535.02 869.736,3566.41 919.307,3500.32C919.307,3500.32 930.873,3533.37 1044.88,3518.5C1044.88,3518.5 1092.8,3592.85 1173.77,3574.68C1173.77,3574.68 1234.9,3632.51 1271.26,3591.2C1271.26,3591.2 1279.32,3635.81 1373.6,3596.16C1373.6,3596.16 1421.62,3606.07 1434.84,3604.42C1434.84,3604.42 1453.89,3633.59 1483.7,3625.78C1483.7,3625.78 1417.88,3575.04 1420.18,3570.43C1420.18,3570.43 1380.44,3573.6 1349.6,3505.61C1349.6,3505.61 1296.49,3455.28 1238.97,3511.77L1261.04,3494.83C1261.04,3494.83 1221.76,3402.96 1133.28,3434.49" style="fill:none;stroke:black;stroke-width:8.55px;"/>
    </g>
</svg>
