<?xml version="1.0" encoding="UTF-8" standalone="no"?>
<!DOCTYPE svg PUBLIC "-//W3C//DTD SVG 1.1//EN" "http://www.w3.org/Graphics/SVG/1.1/DTD/svg11.dtd">
<svg width="100%" height="100%" viewBox="0 0 1920 1919" version="1.1" xmlns="http://www.w3.org/2000/svg" xmlns:xlink="http://www.w3.org/1999/xlink" xml:space="preserve" xmlns:serif="http://www.serif.com/" style="fill-rule:evenodd;clip-rule:evenodd;stroke-linejoin:round;stroke-miterlimit:2;">
    <g>
        <g>
            <path d="M1917.93,1161.08C1837.45,1129.64 1823.46,1125.84 1742.3,1057.74C1601.56,938.044 1705.74,978.501 1494.46,828.69C1419.16,775.063 1410.5,756.198 1391.21,735.82C1367.16,709.737 1288.38,651.507 1262.2,623.77C1225.05,583.587 1193.31,559.749 1063.08,505.12C1042.58,496.235 1036.4,504.605 998.06,478.85C1064.54,479.348 1050.67,479.605 1088.66,490.07C1130.74,502.555 1161.73,504.079 1189.42,512.32C1207.25,517.229 1216.09,523.054 1251.91,534.06C1413.9,583.095 1389.01,570.264 1478.43,636.52C1532.63,678.087 1543.73,675.673 1567.04,690.54C1670.73,753.85 1767.54,935.312 1838.57,1017.32C1860.32,1042.48 1887.26,1063.9 1918.58,1075.7C1919.72,1068.64 1919.29,1007.04 1919.28,1006.02C1920.42,994.175 1849.54,957.368 1823.5,939.71C1791.48,917.105 1762.8,875.927 1749.07,850.84C1717.55,794.758 1733.76,772.015 1667.79,693.18C1597.09,609.72 1509.6,580.56 1508.06,579.86C1533.69,581.449 1557.44,580.658 1573.88,595.23C1579.68,600.143 1584,610.352 1602.87,615.93C1651.19,629.703 1718.08,658.431 1753.89,698.14C1797.21,746.514 1793.63,843.284 1854.53,853.68C1874.99,857.012 1875.64,864.577 1918.5,897.15C1919.75,890.295 1920.1,774.361 1917.93,764.99C1905.28,714.5 1852.75,665.347 1808.72,637.99C1730,589.901 1695.78,592.816 1647.48,552.57C1572.93,489.147 1627.48,533.933 1559.97,483.81C1526.29,458.686 1517.65,439.052 1510.72,430.23C1451.06,350.795 1326.36,364.469 1254.42,318.72C1205.24,288.405 1205.07,261.459 1182.88,239.04C1190.86,241.19 1213.26,276.893 1306.2,286.74C1345.5,291.259 1394.19,287.823 1453.15,295.91C1543.73,309.509 1542.21,330.447 1603.92,356.44C1677.86,386.948 1679.81,313.619 1829.5,429.53C1878.08,467.657 1877.44,461.334 1918.42,516.21C1920.01,507.269 1919.5,441.113 1918.82,435.07C1918.95,433.1 1916.81,432.39 1915.66,431.26C1900.2,419.5 1887.31,404.28 1869.91,395.19C1845.81,382.224 1836.74,371.515 1826.91,365.37C1800.99,348.388 1788.11,355.115 1758.91,341.36C1735.48,329.874 1684.54,314.177 1643.14,296.96C1608.23,282.517 1578.43,266.749 1530.03,266.08C1451.61,267.506 1421.22,268.36 1376.94,252.91C1376.94,252.91 1390.05,252.974 1435.08,247.44C1483.44,240.778 1557.65,255.887 1690.95,188.66C1775.47,146.031 1775.41,145.105 1786.12,134.23C1797.95,124.1 1814.08,122.58 1828.05,116.92C1853.53,106.995 1862.46,95.113 1882.19,85.04C1893.65,78.98 1906.3,75.79 1918.42,71.35C1919.74,65.484 1919.19,8.344 1919,2.26C1916.03,2.23 1797.01,1.95 1797.01,1.95C1789.69,2.156 1739.58,44.698 1691.97,82.13C1592.22,160.628 1589.16,182.209 1494,181.08C1482.48,180.578 1276.09,167.081 1213.56,150.18C1085.27,116.388 1055.37,72.552 1002.71,76.57C1037.46,65.355 1068.95,87.459 1102.12,89.2C1125.62,89.86 1147.67,99.9 1171.17,100.48C1218.43,102.302 1268.13,92.122 1326.31,96.86C1372.01,100.564 1443.46,129.36 1537.89,112.34C1584.98,102.137 1588.67,46.368 1618.18,2.42C1613.67,2.142 1437.4,2.299 1436.39,2.3C1453.6,28.178 1485.01,41.343 1487.95,65.99C1453.21,55.152 1442.82,58.935 1406.01,58.02C1406.01,58.02 1291,53.29 1291,53.29C1212.41,52.582 1180.32,55.26 1137.06,49.33C1106.09,44.666 1039.44,27.405 1006.19,7.76C993.116,0.57 1011.16,1.539 913.44,2.19C915.256,47.071 944.9,47.148 950.39,72.58C914.492,68.064 870.211,32.854 844.91,7.08C842.95,5.04 840.98,2.55 838,2.12C836.999,1.976 761.802,1.899 759.18,2.55C811.985,76.281 874.173,104.894 1113.29,232.02C1100.81,234.336 1057.6,233.632 1017.86,222.26C926.076,196.185 931.815,183.333 865.15,151.83C830.461,135.608 787.651,116.117 766.73,97.29C763.457,94.554 750.616,79.214 737.05,80.64C712.919,83.138 670.916,29.051 660.08,5.84C657.734,1.472 663.176,1.547 617,2.22C620.714,38.055 633.814,60.663 639.74,67.09C639.96,67.6 640.41,68.63 640.64,69.14C639.75,68.25 638.97,67.25 638.23,66.26L637.97,66.54C637.97,66.54 611.493,39.996 587.61,6.63C583.55,1.466 583.244,1.503 570.98,2.07C555.06,2.32 539.11,1.87 523.19,2.29C538.025,41.343 573.711,46.363 585.89,72.37C557.747,65.551 536.289,36.096 502.94,37.94C482.8,40.254 476.826,38.392 464.93,28.89C426.346,-2.675 438.709,2.342 417.01,2.05C349.099,2.718 349.481,0.472 353.11,4.6C382.178,35.625 382.119,26.507 436.18,75.74C474.569,110.401 523.283,78.044 591.11,82.33C611.74,83.13 631.49,89.87 650.99,96.08C669.23,101.8 684.38,113.83 700.45,123.72C729.332,141.572 738.008,153.81 754.93,173.69C793.39,215.855 935.873,255.982 954.82,267.27C1006.14,297.515 1030.7,293.749 1066.41,319.5C1095.65,341.271 1102.41,342.612 1123.94,348.34C1258.22,382.619 1263.65,349.549 1316.91,367.2C1354.63,379.905 1372.83,412.815 1397.33,440.61C1431.92,481.272 1454.09,486.149 1497.56,504.67C1502.38,506.4 1506.72,509.31 1511.62,510.78L1511.23,511.87C1511.8,511.71 1512.94,511.38 1513.51,511.22L1513.57,512.62C1514.07,512.55 1515.07,512.41 1515.57,512.33L1515.77,513.63C1516.22,513.55 1517.14,513.39 1517.59,513.31L1517.62,514.16C1520.42,515.27 1523.34,516.44 1525.51,518.64C1522.88,517.41 1520.37,515.91 1517.56,515.17L1517.38,514.32C1516.9,514.4 1515.93,514.57 1515.45,514.66L1515.5,513.3C1514.99,513.41 1513.98,513.64 1513.47,513.75L1513.4,512.48C1512.67,512.48 1511.22,512.49 1510.49,512.49L1510.67,511.13C1510.12,511.3 1509.02,511.65 1508.47,511.82L1508.92,510.69C1504.34,510.42 1500.21,508.19 1495.85,507C1470.59,498.9 1444.28,494.97 1418.18,490.64C1337.75,477.083 1369.58,477.475 1290.12,458.34C1239.8,446.189 1223.58,436.502 1175.09,418.95C1081.72,384.696 1062.9,402.145 992.01,391.34C943.214,383.239 957.934,374.932 941.69,355.32C929.791,339.216 911.815,339.283 902.06,314.86C895.209,297.711 874.141,285.908 855.36,276.5C800.893,250.654 797.887,244.142 780.34,233.73C727.943,202.335 730.811,210.957 707.66,203.55C665.25,191.085 654.948,165.331 624.86,160.55C578.14,154.603 479.68,213.482 407.48,187.67C371.519,175.1 348.977,134.57 315.39,105.62C268.791,66.259 214.39,11.302 210.3,5.58C208.91,3.42 206.66,1.86 204.02,1.94C191.08,2.36 178.13,1.95 165.18,2.21C171.959,25.089 211.155,35.728 230.14,77.87C152.567,28.856 122.702,47.017 72.57,5.41C70.45,3.57 68,1.72 65.03,1.9C55.52,2.46 45.98,1.83 36.47,2.29C38.77,5.39 42.23,7.32 44.92,10.04C59.41,23.54 68.83,41.34 82.64,55.47C116.341,93.141 125.568,43.747 212.72,114.07C274.201,163.691 303.348,162.319 367.59,199.57C467.58,258.218 494.066,234.177 587.04,232.61C659.013,230.743 663.147,214.254 716.06,231.36C766.114,247.733 797.432,282.343 803.58,300.95C767.772,286.457 739.51,247.322 657.88,264.52C524.638,292.914 400.439,268.838 360.02,265.24C314.756,260.768 304.258,213.55 271.63,201.52C254.38,195.42 235.48,199.6 218.04,194.45C201.409,189.549 165.797,156.54 149.42,141.8C91.733,88.566 49.247,107.842 3.37,86.23C2.488,92.612 2.945,162.864 3.26,169.47C24.825,170.57 37.869,169.85 89.82,192.2C152.705,218.965 158.334,243.997 197.01,260.81C213.541,267.586 220.767,266.581 261.01,266.38C292.868,266.126 275.128,274.607 385.04,294.71C461.661,309.466 518.069,309.8 535.01,308.64C598.334,305.702 681.021,255.869 837.84,342.2C898.019,376.263 913.558,418.586 974.83,448.38C963.556,455.674 946.467,452.716 933.61,448.55C884.242,432.401 860.407,401.703 782.9,373.27C638.222,318.912 533.561,374.618 415.91,348.85C327.013,328.748 308.163,313.278 282.87,315.41C275.32,315.98 269.86,323.91 270.75,331.15C274.765,353.339 348.864,366.836 370.95,368.55C420.951,372.153 444.644,354.834 519.93,371.76C582.479,385.669 572.267,383.831 662.14,391.15C797.729,403.028 838.308,460.253 942.09,511.69C1135.42,601.246 1100.98,591.421 1187.77,662.06C1212.97,682.63 1212.37,692.459 1265.37,736.47C1283.08,751.312 1381.63,824.595 1382.63,825.27C1410.89,844.846 1423,845.601 1457.01,850.71C1491.56,856.191 1502.19,870.858 1516.03,880.12C1633.07,961.69 1619.74,1061.23 1781.08,1149.79C1843.81,1184.36 1908.85,1196.22 1918.66,1196.73C1919.53,1186.51 1919.18,1176.25 1919.39,1166.02C1919.05,1164.4 1919.97,1161.73 1917.93,1161.08ZM1367.55,251.48C1360.04,251.77 1352.56,249.97 1345.58,247.34C1353.06,247.03 1360.58,248.82 1367.55,251.48Z" style="fill:rgb(255,0,43);fill-opacity:0.07;fill-rule:nonzero;"/>
            <path d="M1339.55,19.09C1336.24,13.66 1331.38,9.48 1326.89,5.08C1322.93,1.26 1317.07,1.68 1312.03,2.07C1295.61,2.3 1279.17,1.9 1262.76,2.27C1284.4,12.597 1320.18,23.773 1339.55,19.09Z" style="fill-opacity:0.07;fill-rule:nonzero;"/>
            <path d="M1918.66,135.13C1912.03,137.596 1889.48,134.581 1848.2,164.04C1722.01,252.895 1713.28,233.311 1680.53,252.29C1685.6,253.66 1690.89,253.87 1695.99,255.19C1721.03,261.674 1731.14,276.558 1767.12,283.83C1779.15,286.375 1800.92,286.737 1825.85,297.09C1844.9,305.215 1835.08,301.1 1918.62,325.85C1918.91,323.56 1919.22,321.27 1919.33,318.96C1919.53,229.219 1920.07,233.485 1917.55,232.71C1871.16,214.129 1790.71,237.331 1787.85,237.93C1801.73,226.26 1834.77,218.3 1860.07,209.84C1880.08,202.85 1898.69,192.43 1918.75,185.58C1920.07,183.068 1919.19,142.807 1918.66,135.13Z" style="fill:rgb(255,0,43);fill-opacity:0.07;fill-rule:nonzero;"/>
            <path d="M1618.1,1814.62C1588.49,1791.18 1559.3,1772.62 1527.55,1733.45C1443.34,1630.12 1329.74,1562.37 1299.56,1537.31C1233.16,1481.33 1259.09,1431.25 1229.05,1388.78C1200.62,1350.4 1177.17,1338.35 1150.73,1311.32C1104.74,1263.53 1112.01,1246.85 1018.99,1157.37C1081.77,1178.44 1074.25,1174.08 1132.14,1208.54C1181.7,1238.74 1189.9,1237.44 1267.36,1299.7C1403.1,1407.67 1349.17,1377.52 1470.74,1423.18C1496.19,1432.74 1556.96,1465.49 1605.78,1514.08C1649.38,1558.11 1672.16,1573.84 1702.13,1589.99C1762.36,1622.11 1871.86,1658.47 1919.37,1667.57C1919.34,1632.81 1919.36,1598.06 1919.37,1563.3C1897.95,1546.23 1867.66,1530.44 1837.05,1529.19C1814.32,1528.47 1802.52,1522.94 1779.42,1505.74C1712.51,1455.06 1706.25,1393.56 1675.59,1363.08C1641.68,1331.14 1598.3,1285.48 1553.86,1270.44C1550.98,1269.48 1548.06,1268.67 1545.3,1267.44C1580.53,1264.09 1638.66,1302.91 1666.78,1324.08C1709.75,1356.08 1736,1376.74 1797.87,1387.39C1855.58,1397.42 1894.53,1388.47 1919.36,1387.24C1919.34,1376.63 1919.34,1366.02 1919.37,1355.41C1911.06,1352.85 1902.25,1352.6 1893.83,1350.51C1873.57,1345.61 1825.09,1330.54 1742.08,1319.26C1703.55,1313.73 1654.72,1313.45 1624.89,1282.16C1605.54,1261.75 1592.12,1227.9 1567.36,1203.72C1541.24,1177.33 1514.66,1164.03 1472.48,1139.55C1449.27,1126.41 1442.41,1108.62 1433.78,1089.33C1392.75,1000.19 1332.11,991.25 1314.12,940.84C1308.16,923.571 1298.07,886.074 1279.06,833.9C1286.87,840.899 1399.35,965.411 1418.38,981.66C1439.98,1000.38 1504.53,1033.71 1554.14,1072.62C1623.54,1128.71 1619.02,1195.46 1759.08,1260.79C1779.22,1270.21 1836.2,1294.04 1857.14,1286.88C1833,1260.94 1793.71,1246.38 1773.11,1237.79C1732.69,1220.1 1699.81,1191 1652.62,1134.41C1550.13,1011.57 1573.97,1049.61 1534.57,1007.4C1483.84,953.793 1440.69,882.034 1374.78,843.12C1343.39,824.416 1316.91,822.674 1285.61,792.37C1268.1,776.299 1246.2,752.091 1201.53,737.42C1152.87,721.098 1095.41,717.954 1023.41,662.43C975.812,626.543 921.943,557.739 851.28,520.7C830.819,509.822 807.307,503.763 750.29,474.83C687.935,443.807 635.033,439.689 565.09,433.67C565.088,433.67 334.02,413.28 334.02,413.28C291.738,410.793 249.507,433.013 210,401.06C171.873,370.733 169.878,330.733 110.06,294.05C44.576,252.318 1.659,265.076 2.8,277.03C3.61,288.83 2.05,300.69 3.39,312.47C9.19,311.1 14.96,309.26 20.97,309.2C62.964,307.732 106.315,352.6 131.33,377.67C174.769,422.22 205.173,435.846 212.48,441.09C197.29,439.67 183.78,431.85 169.98,425.98C139.694,412.446 101.294,413.959 77.45,406.7C52.514,399.25 25.478,381.358 3.24,379.76C2.957,382.301 2.518,432.84 3.39,445.7C6.85,447 10.59,447.31 14.12,448.41C31.532,453.514 74.654,474.985 97.47,503.55C125.23,536.19 150.91,570.54 175.09,605.89C188.22,625.21 198.04,646.66 204.48,669.1C129.883,540.566 83.237,541.655 3.35,548.19C2.31,555.76 3.5,563.38 2.92,570.98C2.564,597.82 2.06,591.221 11.77,598.12C104.372,657.931 219.029,731.009 203.91,851.01C203.31,855.71 202.74,860.47 201.28,865.01C198.568,832.845 188.729,803.97 161.1,772.78C93.041,695.08 27.588,714.333 3.31,674.51C2.351,693.362 3.241,768.624 2.86,808.04C3.14,810.09 2.24,813.52 5.14,813.86C39.86,821.08 70.94,838.9 101.91,855.41C138.309,875.297 155.978,879.975 209.46,909.27C286.336,949.362 317.593,943.599 362.12,951.43C409.954,959.869 473.904,980.35 509.41,1013.58C561.961,1064.75 560.872,1036.64 677.84,1058.07C725.491,1067.91 760.296,1068.47 789.88,1075.99C909.194,1107.86 982.505,1171.53 990.1,1186.33C943.128,1157.13 922.137,1153.79 884.09,1140.07C837.049,1124.17 827.921,1117.89 758.18,1103.86C729.53,1097.69 668.011,1083.16 635.88,1099.57C646.589,1116.52 673.23,1110.57 697.11,1116.18C731.334,1123.93 773.821,1143.22 811.9,1159.36C856.609,1178.63 891.537,1203.8 920.51,1221.68C1092.33,1329.72 1122.67,1319.02 1157.48,1380.39C1125.04,1359.76 990.653,1305.23 961.87,1298.48C913.887,1283.67 924.405,1280.24 910.03,1263C884.786,1231.52 845.665,1221.35 820.96,1213.86C705.456,1180.38 644.187,1188.16 578.97,1188.08C461.485,1190.59 435.735,1214.94 334.43,1165.87C279.317,1141.47 239.856,1180.31 175.95,1104.03C152.026,1075.31 132.066,1031.75 99.65,1002.34C56.212,964.476 36.623,971.64 3.25,970.6C2.766,980.347 2.732,1066.33 3.35,1070.64C11.25,1071.16 19.27,1070.34 27.07,1072.09C79.285,1083.49 175.865,1118.14 198.65,1166.69C165.905,1143.42 174.115,1144.73 102.95,1125.32C67.813,1116.08 59.111,1124.37 20.94,1124.9C14.9,1125.11 8.92,1123.97 2.89,1124.09C2.952,1144.63 2.077,1148.02 5.12,1148.49C46.774,1158.46 79.894,1191.88 114.89,1213.06C289.848,1317.38 318.961,1347.05 317.67,1369.96C298.438,1341.4 237.7,1328.82 178.16,1289.62C140.062,1265.44 4.453,1206.12 3.45,1205.74C3.22,1224.37 3.34,1243.01 3.39,1261.65C69.465,1254.3 85.4,1343.54 128.98,1408.03C150.406,1440.17 191.746,1485.27 205.72,1533C148.02,1517.14 139.343,1446.35 82.06,1421.07C78.8,1419.48 74.96,1419.14 71.98,1417.01C68.271,1413.25 66.204,1380.65 38.51,1359.66C28.44,1352.17 15.33,1352.19 3.35,1351.85C2.25,1368.21 3.27,1384.63 2.84,1401.01C3.02,1403.59 2.42,1407.07 5.1,1408.6C64.635,1446.8 55.682,1504.54 89.1,1537.96C112.697,1562.01 153.638,1570.44 196.42,1585.37C283.159,1616.81 280.779,1687.42 404.56,1724.62C444.839,1736.75 479.062,1741.15 531.18,1758.57C627.879,1791.64 634.641,1788.07 656.71,1793.88C641.95,1799.11 613.473,1789.78 590.15,1785.61C506.048,1773.7 475.774,1797.11 327.92,1736.37C273.965,1714.3 186.961,1679.89 140.8,1719.41C150.937,1721.27 171.362,1718.62 192.43,1746.44C217.43,1778.68 212.432,1796.44 260.05,1834.71C317.616,1880.1 357.776,1880.52 366.6,1882.33C347.465,1891.28 313.304,1887.68 291.86,1885.39C203.811,1875.3 221.464,1844.95 148.21,1794.9C147.813,1794.62 79.172,1752.57 52.01,1734.96C21.476,1714.37 21.912,1717.26 3.17,1694.77C2.629,1713.34 2.953,1788.71 3.11,1790.05C3.14,1791.95 5.15,1792.66 6.45,1793.66C22.58,1803.33 34.67,1818.01 47.68,1831.3C92.576,1879.48 104.164,1867.7 155.59,1883.73C181.944,1891.72 190.984,1903.57 196.64,1919L469.46,1919C463.806,1884.84 415.246,1862.78 384.12,1849.7C343.046,1833.12 242.86,1786.16 234.36,1743.22C395.736,1871.4 585.655,1780.39 663.01,1854.05C682.745,1872.37 704.128,1893.91 715.51,1918.34C730.946,1919.29 669.182,1919 1062.09,1919C1060.99,1917.66 1059.86,1916.25 1058.21,1915.64C953.064,1867.38 920.473,1921.65 842.09,1910.82C812.83,1906.98 799.034,1890.61 789.67,1866.17C783.196,1849.78 781.008,1828.51 748.79,1804.24C732.33,1791.04 713.71,1780.89 697.07,1767.93C626.58,1714.28 555.701,1737.57 550.42,1704.89C579.167,1698.85 641.88,1703.03 707.64,1732.21C825.146,1784.13 755.886,1821.96 948.96,1834.61C983.042,1837.17 1027.09,1836.51 1067.14,1856.96C1105.61,1876.18 1114.56,1897.41 1149.2,1919L1274.59,1919C1274.73,1917.71 1274.64,1916.47 1273.48,1915.74C1101.79,1761.87 1009.34,1815.74 848.17,1748.65C841.1,1745.53 833.71,1742.97 827.06,1738.99C840.927,1739.35 876.205,1750.46 889.55,1754.57C1009,1791.02 1136.65,1737.64 1334.1,1820.56C1390.26,1844.07 1443.01,1876.69 1486.96,1919L1610.11,1919C1607.14,1913.28 1476.6,1850.07 1459.16,1841.97C1404.78,1816.57 1370.25,1803.02 1261.77,1766.17C1042.76,1693.15 1018.23,1715.82 931.05,1701.67C873.348,1692.82 853.917,1673.93 830.82,1661.38C773.38,1629.03 756.396,1633.98 733.7,1615.27C696.607,1584.4 728.283,1521.17 578.58,1431.35C501.748,1385.56 424.18,1382.96 357.19,1332.98C295.501,1287.38 287.418,1296.07 234.24,1225.57C230.97,1221.1 227.69,1216.53 225.77,1211.3C232.418,1210.08 501.52,1243.62 502.52,1243.74C558.396,1251.15 576.835,1264.02 607.05,1267.16C690.64,1276.63 787.904,1282.05 879.08,1313.01C1037.64,1366.75 1069.54,1489.51 1177.13,1550.79C1230.91,1581.61 1267.41,1584.43 1330.16,1632.79C1419.31,1699.95 1613.12,1858.73 1638.7,1891.32C1645.74,1900.12 1652.13,1909.41 1658.81,1918.49C1689.12,1918.39 1719.43,1918.65 1749.73,1918.36C1747.25,1915.05 1619.1,1815.4 1618.1,1814.62ZM348.95,424.7C350.05,430 350.71,435.38 351.31,440.76C347.74,436.24 346.93,430.07 348.95,424.7ZM295.76,533.14C345.107,573.121 357.438,593.976 434.57,634.48C556.652,699.106 694.201,703.514 728.96,696.66C714.333,653.323 664.565,640.151 627.87,624.11C599.88,611.327 569.201,616.101 548.01,612.9C543.037,612.254 480.237,600.168 456.2,588.87C422.487,572.946 363.903,500.77 353.08,445.53C362.413,453.125 356.155,454.925 405.45,485.64C489.702,536.42 520.805,534.386 570.47,549.28C727.564,594.556 735.373,611.82 793.73,676.44C846.891,733.272 863.857,756.15 883.87,776.25C912.478,804.532 930.591,816.597 973.97,856.11C1054.28,926.873 1054.13,932.534 1073.79,959.26C1070.94,958.46 1068.8,956.34 1066.44,954.72C986.644,898.173 858.519,852.034 797.95,815C696.665,754.313 563.076,782.774 472.98,740.23C374.717,694.824 277.785,554.573 235.59,515.32C222.46,501.89 205.12,494 189.3,484.34C188.87,483.9 188.01,483.02 187.58,482.58C226.599,481.378 266.475,509.453 295.76,533.14ZM379.77,740.22C552.921,840.816 552.05,766.583 632.09,816.52C645.717,824.751 667.717,842.869 705.87,848.44C739.532,852.584 814.941,870.937 864.48,902.6C894.646,922.312 918.354,941.085 954.31,951.4C922.897,954.26 885.715,927.128 837.84,914.38C762.702,894.621 714.744,901.973 699.93,900.58C641.361,897.936 617.663,842.125 540.03,845.93C505.503,846.966 475.207,856.904 432.88,831.14C410.777,817.775 383.873,793.066 373.87,771.06C366.4,754.81 362.2,737.29 354.72,721.04C353.54,719.92 353.49,718.23 353.22,716.75C354.02,717.79 354.36,719.3 355.71,719.83L355.49,720.15C362.98,727.51 370.58,734.96 379.77,740.22ZM658.57,966.11C640.116,964.355 535.395,962.799 535.07,962.75C474.361,956.618 456.379,887.24 320.9,868.68C298.771,866.438 267.537,875.069 253.02,864.8C251.59,864.35 252.73,862.88 253.21,862.19C270.085,838.121 266.809,787.03 270.18,745.05C270.039,706.038 247.441,664.547 229.67,630.12C210.267,591.468 181.469,566.937 159.92,546.06C91.206,480.638 101.829,465.483 65.78,453.27C138.87,451.599 182.528,510.868 221.86,558.13C234.32,573.02 245.09,589.23 255.04,605.88C266.92,625.13 283.27,640.89 298.07,657.79C359.419,724.805 299.601,815.714 441,867.88C542.009,905.149 710.492,893.569 797.57,995.29C808.76,1008.75 818.13,1024.83 819.73,1042.57C790.678,1036.49 753.008,972.975 658.57,966.11ZM807.11,934.11C815.17,934.5 821.57,940.36 826.9,945.88C819.86,942.74 813.47,938.4 807.11,934.11ZM884.01,1002.04C852.519,978.533 872.735,997.803 832.04,949.87C918.864,992.309 949.658,961.513 996.89,991.2C1040.53,1017.71 1028.33,1047.79 1176.02,1089.38C1248,1109.16 1252.71,1117.33 1270.88,1126.46C1267.91,1120.25 1263.49,1114.87 1260.09,1108.9C1235.18,1069.1 1240.37,1065.89 1189.56,999.03C1169.98,973.109 1074.85,855.776 1049.03,832.01C983.393,770.303 946.71,791.831 898.87,691.31C890.322,674.639 883.116,653.046 855.55,625.53C690.667,471.29 541.703,495.478 494.63,464.78C507.987,462.885 597.76,458.669 680.22,484.79C787.193,517.878 878.254,608.53 961.3,667.73C1014.17,706.589 1031.6,745.534 1089.85,774.99C1115.03,788.689 1162.24,801.787 1192.54,834.46C1233.08,875.799 1253.63,989.726 1286.17,1025.88C1294.21,1035.54 1309.18,1043.63 1326.24,1068.54C1365.67,1129.78 1429.34,1129.31 1476.93,1198.24C1503.72,1236.13 1512.13,1285.11 1556.29,1354.53C1569.39,1374.9 1593.11,1407.54 1612.9,1421.33C1611.92,1421.08 1610.92,1420.58 1610.12,1420.09C1542.53,1378.93 1516.59,1358.67 1454.57,1327.4C1306.91,1254.88 1187.19,1132.29 1094.11,1116.55C1076.94,1113.13 1043.86,1117.18 1001.46,1090.72C976.086,1074.75 919.237,1027.36 884.01,1002.04ZM578.64,1491.53C657.234,1545.18 635.839,1619.91 703.86,1660.03C727.379,1673.8 789.685,1699.61 790.94,1730.16C786.73,1730.16 780.44,1731.82 778.58,1726.66C737.339,1625.83 516.149,1677.94 467.09,1680.52C294.335,1695.26 242.009,1558.72 204,1471.14C187.77,1434.85 160.19,1405.64 137.48,1373.51C123.04,1353.22 117.37,1328.07 102.17,1308.25C123.99,1311.81 143.77,1322.27 162.84,1332.95C253.606,1387.36 440.895,1393.75 578.64,1491.53ZM1164.24,1387.73C1167.55,1389.55 1170.07,1392.51 1172.08,1395.67C1168.75,1393.83 1166.01,1391.09 1164.24,1387.73Z" style="fill:rgb(255,0,43);fill-opacity:0.07;fill-rule:nonzero;"/>
            <path d="M1919.14,584.02C1880.85,542.542 1876.64,536.989 1865.07,529.06C1832.53,504.99 1792.75,494.5 1757.5,475.39C1640.95,410.981 1664.75,442.189 1623.8,422.23C1603.46,411.05 1582.38,400.98 1563.57,387.24C1558.42,383.8 1554.11,379.25 1548.7,376.21C1549.53,377.08 1550.43,377.9 1551.34,378.74C1551.66,381.31 1553.97,382.65 1555.27,384.67C1570.69,406.994 1565.26,405.989 1589.48,429.47C1699.09,528.931 1750.68,493.706 1842.7,571.3C1890.48,611.808 1894.92,621.46 1918.42,656.65C1919.85,649.545 1919.3,590.95 1919.14,584.02Z" style="fill:rgb(255,0,43);fill-opacity:0.07;fill-rule:nonzero;"/>
            <path d="M3.36,917.37C34.264,917.574 77.253,943.48 102.44,961.46C157.152,1000.26 165.964,1022.99 188.97,1028.21C202.519,1031.92 221.024,1021.86 268.48,1052.49C307.016,1077.23 333.499,1106.92 388.02,1112.98C441.939,1118.72 451.97,1114.04 473.7,1114.57C473.57,1114.76 473.3,1115.13 473.17,1115.32C475,1114.4 477.07,1114.91 479.02,1115C505.542,1117.72 508.179,1110.12 526.72,1103.62C425.287,1097.2 357.172,1018.36 293.41,984.48C257.07,965.605 223.977,964.388 195.44,953.36C172.917,944.991 145.449,924.824 130.07,916.64C93.542,896.636 79.729,897.211 21.92,879.82C15.63,877.97 9.59,875.36 3.25,873.73C3.227,874.739 2.774,913.982 3.36,917.37Z" style="fill:rgb(255,0,43);fill-opacity:0.07;fill-rule:nonzero;"/>
            <path d="M411.18,1291.18C411.464,1293.45 410.828,1291.25 443.03,1314.9C476.203,1339.25 482.219,1333.66 634.48,1375.34C672.464,1385.81 677.545,1393.28 711.89,1410.32C745.851,1426.22 773.7,1435.95 795.18,1471.99C832.733,1536.36 821.079,1559.46 896.88,1564.96C928.887,1567.03 994.132,1590.31 1010.5,1598.69C1046.9,1616.36 1072.56,1643.71 1122.81,1666.19C1142.29,1674.66 1181.87,1689.76 1229.9,1712.97C1275.96,1735.19 1331.02,1769.99 1381.04,1783.93C1449.49,1804.11 1461.18,1797.68 1520.62,1836.31C1523.87,1838.21 1526.64,1841.07 1530.45,1841.88C1525.17,1821.16 1473.8,1801.61 1454.07,1793.56C1415.54,1776.98 1391,1754.81 1378.48,1745.47C1333.28,1710.96 1301.69,1694.79 1238.13,1652.91C1168.31,1607.85 1193.79,1624.62 1160.07,1609.01C1134.43,1597.05 1128.54,1588.5 1106.53,1580.62C1095.04,1576.2 1081.27,1576.5 1059.07,1562.57C1043.94,1553.24 1032.6,1539.76 1006.03,1532.25C871.351,1494.01 959.668,1401.59 758.85,1342.27C688.741,1321.66 576.929,1312.38 553.85,1312.13C553.72,1312.02 553.47,1311.8 553.34,1311.69C495.388,1310.12 415.861,1293.16 404.11,1287.88C396.38,1283.1 387.93,1279.18 379.02,1277.23C386.548,1282.32 404.344,1288.9 409.77,1290.64L409.46,1291.85C409.89,1291.68 410.75,1291.35 411.18,1291.18Z" style="fill:rgb(255,0,43);fill-opacity:0.07;fill-rule:nonzero;"/>
            <path d="M235.06,1409.42C235.06,1409.42 249.998,1420.53 256.41,1427.78C300.418,1475.14 278.477,1534.54 338.78,1575.08C376.184,1600.08 425.322,1609.09 469.05,1617.09C506.719,1624.45 534.122,1616.36 569.04,1611.54C609.461,1606.02 638.277,1624.81 643.21,1626.97C601.944,1597.94 551.692,1588.51 506.43,1564.5C490.31,1555.72 472.63,1550.09 456.97,1540.41C442.1,1530.84 437.676,1519.61 427.59,1500.46C406.811,1464.32 333.005,1433.84 288.94,1424.71C271.18,1421.16 253.33,1417.16 236.56,1410.24C236.19,1410.03 235.43,1409.62 235.06,1409.42Z" style="fill:rgb(255,0,43);fill-opacity:0.07;fill-rule:nonzero;"/>
            <path d="M1918.74,1469.52C1911.28,1467.63 1837.66,1431.15 1795.76,1441.41C1815.76,1451.87 1837.88,1458.85 1855.5,1473.44C1880.62,1493.43 1881.11,1516.46 1918.66,1537.72C1919.58,1529.57 1919.45,1479.27 1918.74,1469.52Z" style="fill-opacity:0.07;fill-rule:nonzero;"/>
            <path d="M1918.52,1747.33C1919.75,1739.23 1919.35,1709.03 1919.34,1708.03C1918.31,1698.38 1919.58,1709.76 1846.98,1692.57C1763.21,1673.54 1615.55,1609.53 1574.17,1583.67C1543.93,1563.93 1522.97,1560.98 1511.14,1555.87C1486.65,1546.02 1479.1,1532.21 1464.56,1527.69C1465.1,1528.69 1465.81,1529.58 1466.7,1530.33C1499.26,1554.5 1528.81,1574.66 1551.02,1610.01C1564.63,1630.96 1574.8,1665.93 1601.45,1687.55C1631.45,1713.32 1665.62,1709.52 1698.8,1746.93C1743.64,1797.17 1772.94,1866 1830.87,1883.77C1915.08,1908.39 1864.09,1921.08 1918.89,1918.14C1916.13,1913.14 1911.02,1910.39 1906.42,1907.4C1903.6,1905.78 1903.78,1902.13 1902.61,1899.49C1888.63,1862.97 1811.33,1848.53 1800.89,1808.29C1811.23,1813.95 1816.97,1825.52 1827.88,1830.37C1838.57,1835.56 1865.9,1835.58 1888.09,1839.16C1899.54,1840.93 1908.64,1848.52 1918.59,1853.83C1919.99,1844.9 1919.34,1822.87 1918.71,1813.59C1883.13,1801.57 1876.34,1792.49 1825,1776.92C1786.13,1764.79 1773.42,1748.56 1758.83,1734.18C1731.92,1707.56 1716.04,1712.56 1691.73,1694.25C1685.02,1689.19 1679.49,1681.38 1680.16,1672.62C1706.03,1681.16 1767.25,1744.4 1918.52,1747.33Z" style="fill:rgb(255,0,43);fill-opacity:0.07;fill-rule:nonzero;"/>
            <path d="M1368.02,1882.93C1320.33,1864.21 1279.83,1865.88 1272.59,1867.6C1281.99,1879.28 1320.86,1918.06 1321.86,1919C1323.45,1919 1420.38,1919.14 1430.68,1918.45C1424.31,1910.73 1398.33,1894.92 1368.02,1882.93Z" style="fill-opacity:0.07;fill-rule:nonzero;"/>
            <path d="M113.03,1907.81C84.235,1908.21 68.859,1906.8 55.28,1900.77C35.561,1891.82 13.859,1873.58 3.26,1870.48C2.843,1876.22 2.579,1909.81 3.45,1919L174.73,1919C174.794,1909.98 121.8,1908.1 113.03,1907.81Z" style="fill-opacity:0.07;fill-rule:nonzero;"/>
            <path d="M542.87,1873.61C541.34,1873.54 539.52,1874.77 540.56,1876.46C546.84,1892.53 562.34,1901.74 575.26,1911.97C585.649,1918.58 569.272,1919.88 658.07,1918.15C655.6,1913.13 651.32,1909.43 648.1,1904.96C626.226,1875.71 579.243,1870.38 542.87,1873.61Z" style="fill-opacity:0.07;fill-rule:nonzero;"/>
        </g>
    </g>
</svg>
