<?xml version="1.0" encoding="UTF-8" standalone="no"?>
<!DOCTYPE svg PUBLIC "-//W3C//DTD SVG 1.1//EN" "http://www.w3.org/Graphics/SVG/1.1/DTD/svg11.dtd">
<svg width="100%" height="100%" viewBox="0 0 9934 14044" version="1.1" xmlns="http://www.w3.org/2000/svg" xmlns:xlink="http://www.w3.org/1999/xlink" xml:space="preserve" xmlns:serif="http://www.serif.com/" style="fill-rule:evenodd;clip-rule:evenodd;stroke-linecap:round;stroke-linejoin:round;stroke-miterlimit:1.5;">
    <g>
        <path d="M5291,10961.2L4966.53,11348.8L1344.18,7021.65L3134.65,4882.79" style="fill:none;stroke:black;stroke-width:125px;"/>
        <path d="M4003.43,3844.97L4966.53,2694.46L5977.21,3901.79" style="fill:none;stroke:black;stroke-width:125px;"/>
        <path d="M6888.21,4990.05L8588.89,7021.65L6676.98,9305.58" style="fill:none;stroke:black;stroke-width:125px;"/>
    </g>
    <g>
        <path d="M6147.72,7110.64L6014.07,7467.49L5950.53,7632.74L5908.69,7802.79L5901.51,7970.44L5913.48,8032.71L5950.53,7847.18L6038.97,7596.82L6121.85,7335.77L6147.72,7110.64Z" style="fill:rgb(26,26,26);stroke:rgb(26,26,26);stroke-width:3.81px;"/>
        <path d="M6184.12,7230.39L6147.72,7364.51L6124.24,7536.94L6083.53,7604L6024.62,7778.84L5973.36,7953.67L5937.44,8118.93L5942.23,8200.36L5947.01,8253.05L6024.62,8121.32L6061.97,7984.81L6081.13,7781.23L6114.66,7630.35L6147.72,7571.67L6179.33,7364.51L6184.12,7230.39Z" style="fill:rgb(26,26,26);stroke:rgb(26,26,26);stroke-width:3.81px;"/>
        <path d="M6287.1,7592.03L6275.13,7501.02L6224.83,7498.62L6184.12,7571.67L6147.72,7741.72L6147.72,7989.6L6184.12,7896.19L6232.02,7741.72L6270.34,7714.17L6291.89,7741.72L6335.06,7606.4L6287.1,7592.03" style="fill:rgb(26,26,26);stroke:rgb(26,26,26);stroke-width:3.81px;"/>
        <path d="M6335.06,8051.87L6277.52,7989.6L6184.12,7989.6L6147.72,8092.58L6126.64,8123.72L6081.13,8205.15L6060.78,8269.81L6095.5,8253.05L6184.12,8272.2L6205.67,8291.36L6241.39,8315.32L6299.08,8324.9L6335.06,8051.87Z" style="fill:rgb(26,26,26);stroke:rgb(26,26,26);stroke-width:3.81px;"/>
        <path d="M6197.92,8617.08L6147.72,8514.1L6060.78,8487.75L6024.62,8535.65L6024.62,8600.32L6060.78,8693.72L6097.9,8811.08L6147.72,8861.37L6197.92,8849.4L6197.92,8617.08" style="fill:rgb(26,26,26);stroke:rgb(26,26,26);stroke-width:3.81px;"/>
        <path d="M6479.73,6901.99L6418.91,6899.05L6335.06,6903.96L6307.08,6934.37L6267.84,6972.63L6216.82,7108L6207.02,7164.9L6219.77,7211.99L6251.16,7270.85L6281.57,7337.55L6314.92,7375.81L6335.06,7274.77L6373.78,7238.47L6445.4,7194.33L6478.75,7160.98L6492.48,7102.11L6479.73,6901.99Z" style="fill:rgb(38,38,38);stroke:black;stroke-width:3.81px;"/>
        <path d="M6281.57,7072.69L6323.75,7000.09L6364.95,6971.64L6403.21,6956.93L6447.36,6947.12L6480.71,6956.93L6492.48,7090.34L6478.75,7127.62L6441.47,7112.91L6407.14,7091.32L6335.06,7084.46L6303.15,7078.57L6281.57,7072.69Z" style="stroke:black;stroke-width:3.81px;"/>
        <path d="M3492.11,3908.15C3438.12,3954.36 3389.85,4052.71 3351.37,4132.01C3311.82,4213.51 3271.51,4315.41 3254.81,4397.18C3239.77,4470.81 3242.76,4547.92 3251.17,4622.6C3264.71,4742.92 3295.08,4991.15 3336.05,5119.13C3368.11,5219.27 3433.49,5306.62 3496.99,5390.43C3561.93,5476.14 3677.8,5532.97 3725.66,5633.35C3780.18,5747.69 3806.68,5955.72 3824.1,6076.5C3837.49,6169.42 3833.54,6272.82 3830.16,6358.06C3827.1,6435.14 3807.01,6515.73 3803.82,6587.98C3800.82,6655.82 3805.73,6723.86 3811,6791.56C3817.59,6876.18 3829.82,6994.66 3843.33,7095.72C3857.24,7199.68 3863.12,7312.07 3894.43,7415.31C3945.7,7584.33 4106.87,7958.08 4150.91,8109.85C4170.99,8179.06 4155.65,8253.91 4158.66,8325.91C4162.15,8409.19 4171.12,8525.04 4171.82,8609.53C4172.44,8684.03 4153.59,8758.94 4162.9,8832.85C4173.64,8918.17 4197.83,9040.3 4236.27,9121.45C4272.38,9197.7 4330.64,9263.52 4393.53,9319.76C4499.55,9414.57 4827.81,9556.23 4872.36,9690.28C4883.9,9725 4921.05,9754.15 4936.74,9779.18C4948.81,9798.43 4960.12,9818.7 4966.53,9840.49C4977.52,9877.79 4988.2,9966.44 5002.65,10003C5011.97,10026.5 5034.26,10042.9 5053.23,10059.7C5077.5,10081.1 5118.38,10114.9 5148.27,10131.7C5174.16,10146.3 5208.3,10153.7 5232.57,10160.8C5252.66,10166.8 5272.94,10175.3 5293.88,10174.6C5319.68,10173.9 5356.53,10163.8 5387.38,10156.3C5422.89,10147.6 5466.73,10132.4 5506.94,10122.5C5547.56,10112.6 5589.03,10100.8 5631.1,10096.5C5676.06,10091.9 5728.17,10095.4 5776.71,10094.9C5825.86,10094.4 5876.44,10088.6 5925.96,10093.4C5976.38,10098.3 6037.34,10110.8 6079.24,10124.1C6114.09,10135.1 6153.32,10161.1 6177.34,10173.1C6192.67,10180.8 6206.23,10194.8 6223.32,10196.1C6246.82,10197.9 6292.81,10193 6318.36,10183.8C6341.05,10175.7 6360.29,10158.7 6376.6,10140.9C6393.72,10122.3 6413.03,10098.1 6421.05,10071.9C6429.99,10042.8 6427.95,9999.14 6430.25,9966.18C6432.39,9935.56 6432.55,9895.42 6434.85,9874.22C6436.16,9862.14 6436.55,9848.52 6444.05,9838.96C6454.26,9825.93 6485.18,9811.37 6496.16,9796.04C6506.05,9782.24 6508.1,9763.88 6509.95,9746.99C6512.51,9723.75 6515.83,9682.36 6511.49,9656.56C6507.61,9633.54 6493.68,9613.38 6483.9,9592.18C6470.1,9562.29 6443.53,9509.16 6428.72,9477.22C6416.97,9451.9 6408.36,9425.08 6394.99,9400.58C6376.6,9366.86 6342.11,9309.89 6318.36,9274.89C6298.32,9245.38 6268.28,9212.3 6252.44,9190.59C6241.75,9175.93 6226.36,9162.49 6223.32,9144.6C6218.72,9117.53 6225.67,9066.94 6224.86,9028.11C6223.83,8979.32 6218.88,8910.63 6217.19,8851.84C6215.4,8789.76 6212.08,8700.6 6214.13,8655.64C6215.26,8630.62 6225.44,8606.8 6229.45,8582.07C6234.31,8552.18 6235.58,8503.13 6243.25,8476.31C6249.1,8455.83 6267.69,8440.96 6275.44,8421.13C6284.12,8398.9 6289.49,8369.01 6295.36,8342.95C6301.2,8317.05 6307.99,8291.2 6310.69,8264.78C6316.57,8207.3 6328.32,8056.07 6330.62,7998.07C6331.69,7970.94 6325.21,7943.98 6324.49,7916.84C6322.95,7859.36 6321.42,7715.53 6321.42,7653.19C6321.42,7616.39 6323.72,7578.85 6324.49,7542.83C6325.24,7507.58 6325,7466.45 6326.02,7437.07C6326.84,7413.53 6327.41,7389.9 6330.62,7366.56C6334.45,7338.72 6341.86,7292.99 6349.01,7270C6353.78,7254.69 6363.06,7240.62 6373.54,7228.61C6384.01,7216.6 6397.08,7204.98 6411.86,7197.95C6427.44,7190.55 6453.88,7197.81 6467.04,7184.16C6480.83,7169.85 6490.79,7137.55 6494.63,7112.12C6498.71,7085.03 6492.33,7050.52 6491.56,7021.65C6490.83,6994.08 6491.9,6966.43 6490.03,6938.91C6487.99,6908.77 6484.41,6868.15 6479.3,6840.81C6475.08,6818.25 6468.03,6796.16 6459.37,6774.9C6450.43,6752.93 6434.59,6731.99 6425.65,6708.99C6416.71,6686 6411.56,6661.17 6405.73,6636.95C6397.29,6601.95 6384.27,6537.32 6375.07,6499C6367.66,6468.15 6362.81,6434.88 6350.54,6407.03C6338.49,6379.67 6315.88,6358.14 6301.49,6331.93C6282.85,6297.95 6259.34,6241.24 6238.65,6203.17C6220.03,6168.91 6200.33,6133.94 6177.34,6103.54C6154.66,6073.55 6124.97,6049.38 6100.7,6020.77C6076.44,5992.16 6052.77,5962.91 6031.72,5931.87C6005.92,5893.8 5961.73,5822.27 5945.89,5792.38C5939.5,5780.34 5928.27,5763.25 5936.69,5752.53C5952.53,5732.35 6006.69,5691.98 6040.92,5671.29C6072.27,5652.34 6107.44,5640.29 6142.08,5628.37C6182.19,5614.58 6246.82,5607.68 6281.57,5588.52C6311.33,5572.11 6327.91,5538.77 6350.54,5513.41C6384.52,5475.35 6450.94,5406.37 6485.43,5360.13C6514.04,5321.78 6533.2,5275.57 6557.47,5235.98C6581.02,5197.55 6609.99,5162.4 6631.05,5122.55C6661.96,5064.05 6715.35,4946.79 6742.94,4884.97C6762.47,4841.21 6790.07,4799.08 6796.59,4751.61C6807.57,4671.65 6806.81,4488.48 6808.85,4405.2C6810.1,4354.12 6812.47,4302.89 6808.85,4251.92C6804.76,4194.44 6795.06,4114.99 6784.32,4060.32C6775.2,4013.84 6757.5,3964.27 6744.47,3923.9C6732.95,3888.22 6723.01,3848.28 6706.15,3818.14C6690.22,3789.65 6667.83,3763.98 6643.31,3743.03C6618.78,3722.09 6591.5,3696.69 6559,3692.45C6523.75,3687.85 6470.07,3695.67 6431.78,3715.44C6384.78,3739.71 6325,3796.94 6276.97,3838.07C6230.84,3877.57 6182.45,3922.37 6143.62,3962.22C6108.23,3998.54 6073.9,4036.24 6043.98,4077.18C6007.61,4126.97 5952.82,4213.21 5925.39,4260.96C5906.7,4293.48 5891.92,4330.95 5879.4,4363.65C5867.73,4394.14 5867.13,4429.2 5850.28,4457.15C5828.56,4493.18 5778.49,4539.41 5749.11,4579.78C5721.42,4617.83 5699.08,4659.51 5674.01,4699.34C5647.95,4740.72 5618.06,4787.47 5592.77,4828.09C5569.01,4866.25 5542.95,4907.54 5522.26,4943.05C5503.49,4975.25 5486.3,5008.34 5468.61,5041.15C5447.41,5080.49 5415.48,5146.4 5395.04,5179.1C5381.59,5200.63 5359.78,5224.32 5345.99,5237.35C5336.5,5246.31 5324.27,5255.74 5312.27,5257.27C5300.26,5258.81 5277.61,5259.29 5273.95,5246.54C5268.58,5227.9 5272.23,5178.24 5280.08,5145.38C5289.53,5105.78 5318.33,5055.87 5330.66,5008.96C5343.69,4959.4 5370.27,4901.1 5358.25,4848.02C5342.92,4780.32 5278.78,4684.41 5238.69,4602.77C5193.54,4510.8 5121.23,4378.47 5087.32,4296.21C5062.65,4236.39 5057.68,4163.11 5035.2,4109.21C5014.73,4060.12 4973.89,4002.17 4952.43,3972.79C4940.47,3956.41 4925.57,3926.18 4906.45,3932.94C4872.47,3944.95 4787.65,4008.3 4748.57,4044.83C4716.46,4074.84 4697.87,4116.65 4671.93,4152.13C4644.85,4189.17 4616.03,4229.79 4586.09,4267.09C4555.95,4304.64 4516.61,4341.43 4491.06,4377.45C4467.78,4410.28 4450.95,4457.15 4432.81,4483.21C4419.19,4502.78 4398.6,4516.45 4382.23,4533.8C4365.11,4551.93 4345.44,4594.08 4330.12,4592.04C4314.79,4590 4301.65,4546.01 4290.26,4521.53C4274.94,4488.58 4260.91,4434.09 4238.15,4394.31C4208.77,4342.96 4159.28,4270.86 4113.99,4213.44C4061.2,4146.51 3971.62,4043.05 3921.37,3992.72C3889.39,3960.68 3852.03,3933.62 3812.55,3911.48C3771.54,3888.49 3724.81,3855.28 3675.31,3854.77C3621.91,3854.21 3540.44,3866.79 3492.11,3908.15Z" style="fill:none;stroke:black;stroke-width:41.67px;"/>
        <path d="M3795.96,5891.65C3795.96,5891.65 3009.65,6793.55 1685.16,7362.36" style="fill:none;stroke:black;stroke-width:41.67px;"/>
        <path d="M3924.76,10009L4228.92,9697.67C4228.92,9697.67 4313.95,9606.66 4330.12,9558.76C4346.28,9510.86 4343.46,9455.77 4417.91,9422.24C4492.37,9388.71 4484.16,9393.5 4484.16,9393.5" style="fill:none;stroke:black;stroke-width:41.67px;"/>
        <path d="M5863.26,4425.4C5858.73,4479.26 5849.7,4587 5837.8,4667.15C5823.57,4762.92 5797.45,4913.03 5777.92,5000.05C5763.49,5064.35 5736.18,5128.98 5720.61,5189.25C5705.93,5246.11 5689.34,5316.19 5684.52,5361.69C5680.98,5395.12 5688.13,5439.9 5691.7,5462.28" style="fill:none;stroke:black;stroke-width:41.67px;"/>
        <path d="M6038.97,4298.32C6010.77,4383.07 5954.35,4552.59 5935.99,4626.43C5926.73,4663.69 5932.5,4703.18 5928.81,4741.39C5924.02,4790.89 5917.91,4863.25 5907.25,4923.41C5895.07,4992.12 5863.09,5079.38 5855.76,5153.63C5848.7,5225.07 5794.77,5339.25 5863.26,5368.88C6481.96,5636.56 6502.33,4997 6656.59,4484.49" style="fill:rgb(26,26,26);stroke:black;stroke-width:41.67px;"/>
        <path d="M6035.23,4298.32C6066.87,4256.4 6130.16,4172.58 6168.3,4123.48C6199.67,4083.12 6226.86,4038.74 6264.1,4003.73C6304.02,3966.21 6357.73,3915.32 6407.8,3898.35C6457.29,3881.59 6542.42,3874.37 6564.53,3901.95C6639.82,3995.89 6736.78,4231.82 6656.59,4503.2" style="fill:rgb(26,26,26);stroke:black;stroke-width:41.67px;"/>
        <path d="M5135.69,9428.31C5125.32,9432.7 5104.96,9490.58 5106.95,9519.32C5108.95,9548.06 5135.05,9573.15 5147.67,9600.75C5160.44,9628.69 5176.81,9663.82 5183.59,9686.97C5188.55,9703.89 5181.6,9731.67 5188.38,9739.66C5195.17,9747.64 5212.32,9736.34 5224.31,9734.87C5243.87,9732.47 5285.38,9735.67 5305.74,9725.29C5325.51,9715.21 5335.28,9684.97 5346.45,9672.6C5354.06,9664.18 5377.38,9661.42 5372.8,9651.04C5366.81,9637.47 5326.49,9606.34 5310.53,9591.17C5299.47,9580.66 5288.57,9566.42 5277,9560.03C5266.31,9554.13 5252.58,9556.93 5241.07,9552.85C5228.7,9548.46 5213.72,9542.83 5202.75,9533.69C5190.78,9523.71 5178.66,9507.81 5169.22,9492.97C5158.05,9475.41 5146.07,9423.92 5135.69,9428.31Z" style="stroke:black;stroke-width:41.67px;"/>
        <g transform="matrix(-0.94228,0.0162192,0.0138015,0.801817,11079.9,1843.92)">
            <path d="M5135.69,9428.31C5125.32,9432.7 5104.96,9490.58 5106.95,9519.32C5108.95,9548.06 5135.05,9573.15 5147.67,9600.75C5160.44,9628.69 5176.81,9663.82 5183.59,9686.97C5188.55,9703.89 5181.6,9731.67 5188.38,9739.66C5195.17,9747.64 5212.32,9736.34 5224.31,9734.87C5243.87,9732.47 5285.38,9735.67 5305.74,9725.29C5325.51,9715.21 5335.28,9684.97 5346.45,9672.6C5354.06,9664.18 5377.38,9661.42 5372.8,9651.04C5366.81,9637.47 5326.49,9606.34 5310.53,9591.17C5299.47,9580.66 5288.57,9566.42 5277,9560.03C5266.31,9554.13 5252.58,9556.93 5241.07,9552.85C5228.7,9548.46 5213.72,9542.83 5202.75,9533.69C5190.78,9523.71 5178.66,9507.81 5169.22,9492.97C5158.05,9475.41 5146.07,9423.92 5135.69,9428.31Z" style="stroke:black;stroke-width:47.62px;"/>
        </g>
        <path d="M5376.6,10284.8C5376.6,10284.8 5664.76,10474.9 6122.15,10310.5" style="fill:none;stroke:black;stroke-width:41.67px;"/>
        <path d="M5605.31,10364.5L5601,10451.6" style="fill:none;stroke:black;stroke-width:41.67px;"/>
        <path d="M5759.18,10377.4L5762.86,10522.7" style="fill:none;stroke:black;stroke-width:41.67px;"/>
        <path d="M5929.63,10364.5L5935.76,10463.8" style="fill:none;stroke:black;stroke-width:41.67px;"/>
        <path d="M5700.96,10101.4L5699.98,10174" style="fill:none;stroke:black;stroke-width:41.67px;"/>
        <path d="M5876.56,10101.4L5876.56,10170.2" style="fill:none;stroke:black;stroke-width:41.67px;"/>
        <path d="M3710.93,5438.76C3840.53,5475.89 4166.1,5319.89 4245.31,5185.79C4324.52,5051.7 4212.25,4776.64 4186.18,4634.19C4167.08,4529.81 4141.9,4416.52 4088.89,4331.07C4035.87,4245.63 3941.07,4170.16 3868.1,4121.51C3803.71,4078.59 3707.81,4038.56 3651.05,4039.18C3600.88,4039.74 3559.24,4086.35 3527.56,4125.25C3492.01,4168.91 3456.47,4238.02 3437.75,4301.14C3414.67,4378.93 3384.66,4493.83 3389.1,4592.04C3394.09,4702.35 3422.78,4844.86 3467.68,4963.01C3521.32,5104.13 3581.32,5401.63 3710.93,5438.76Z" style="fill:rgb(26,26,26);stroke:black;stroke-width:41.67px;"/>
        <path d="M4330.12,4592.04C4344.8,4626.26 4374.16,4694.71 4392.2,4747.52C4414.71,4813.44 4449.25,4925.72 4465.19,4987.55C4476.24,5030.45 4481.31,5081.37 4487.82,5118.52C4493.2,5149.19 4501.9,5179.44 4504.27,5210.48C4507.01,5246.39 4505.18,5304.78 4504.27,5333.98" style="fill:none;stroke:black;stroke-width:41.67px;"/>
        <path d="M4989.93,9981.42C5030.83,10098.6 5112.63,10332.9 5149.19,10430.4C5166.6,10476.8 5182.22,10525 5209.27,10566.5C5240.13,10613.9 5298.38,10682.8 5334.35,10714.9C5359.45,10737.3 5392.97,10749.1 5425.09,10759C5461.27,10770.3 5508.69,10779.3 5551.39,10782.3C5622.72,10787.4 5772.32,10795.2 5853.05,10789.7C5915.28,10785.4 5985.89,10772.3 6035.76,10749.2C6081.82,10727.9 6127.11,10679.7 6152.25,10651.1C6170.11,10630.8 6182.44,10604.3 6186.58,10577.6C6194.15,10528.7 6192.92,10421.6 6197.62,10358.1C6201.62,10304 6210.4,10232.3 6214.79,10196.5" style="fill:none;stroke:black;stroke-width:41.67px;"/>
        <path d="M5275.49,10171.7C5295.11,10188.3 5334.35,10221.5 5352.74,10245.2C5368.32,10265.3 5369.21,10294.7 5385.85,10313.9C5409.76,10341.5 5468.21,10390.8 5496.21,10410.8C5513.07,10422.8 5535.44,10424.6 5553.85,10434.1C5578.78,10447 5615.98,10471.5 5645.81,10488C5674.43,10503.9 5710.4,10527.5 5732.88,10533.4C5748.61,10537.6 5765.34,10529 5780.7,10523.6C5796.44,10518.1 5811.15,10506.7 5827.3,10500.3C5851.62,10490.7 5894.58,10480.1 5926.62,10466C5959.94,10451.3 5996.79,10434.9 6027.17,10412C6057.83,10388.9 6090.32,10353.2 6110.56,10327.4C6126.94,10306.6 6139.59,10282.5 6148.57,10257.5C6157.77,10232 6163.08,10193.4 6165.74,10174.1" style="fill:none;stroke:black;stroke-width:41.67px;"/>
        <path d="M5337.16,10170.2L6158.74,10177.8L5337.16,10170.2Z" style="fill:none;stroke:black;stroke-width:41.67px;"/>
        <path d="M5121.9,8359.24C5121.9,8359.24 5552.39,8695.85 5661.56,8698.32C5741.08,8700.12 6015.35,8639.9 6005.99,8312.46" style="fill:none;stroke:rgb(26,26,26);stroke-width:41.67px;"/>
        <path d="M2456.15,6976.64L2492.08,7299.96L2602.84,7665.2L2692.66,8060.37L2680.68,8545.36L2123.85,7988.52L2105.88,7847.18L2093.91,7668.19L2078.94,7503.54L2102.89,7362.36L2114.86,7192.19L2132.83,7144.29L2456.15,6976.64Z" style="fill:rgb(26,26,26);stroke:black;stroke-width:22.4px;"/>
        <path d="M2692.66,6811.55L2668.94,7077.4L2642.6,7218.7L2692.66,7331.27L2752.77,7498.91L2819.83,7652.19L2841.38,8195.86L2846.17,8459.31L2827.01,8734.73L3085.67,9086.79L3267.69,9343.06L3320.38,9280.79L3308.41,9139.48L3267.69,8950.28L3244.2,8775.44L3205.42,8545.36L3176.68,8377.88L3140.76,8203.04L3128.78,8037.79L3114.41,7847.18L3109.62,7728.83L3112.02,7393.53L3076.09,7254.63L2992.27,7106.14L2951.55,6995.97L2918.02,6821.13L2941.97,6725.33L2961.13,6639.11L2692.66,6811.55Z" style="fill:rgb(26,26,26);stroke:rgb(26,26,26);stroke-width:22.4px;"/>
        <path d="M3141.5,6481.33L3109.31,6639.11L3101.65,6790.95L3109.31,6892.12L3136.9,6990.22C3136.9,6990.22 3196.68,7122.04 3199.74,7137.36C3202.81,7152.69 3244.2,7321.3 3244.2,7321.3L3244.2,7908.36L3267.19,8067.77L3296.31,8175.07L3336.16,8355.94C3336.16,8355.94 3349.96,8449.44 3353.02,8464.76C3356.09,8480.09 3406.67,8602.72 3406.67,8602.72L3448.06,8843.36L3437.33,9011.97L3463.39,9172.92L3486.38,9295.54L3619.73,9572.98L3745.42,9674.14L3895.63,9793.7L3932.42,9856.54L3950.81,9934.71L3950.81,9963.84L4231.32,9710.93L4284.96,9638.89L4297.23,9563.78L4266.57,9488.67L4204.59,9470.28L4153.14,9430.43L4120.95,9393.26L4084.17,9287.88L4035.12,9185.18L4001.4,9070.22L3950.81,8719.21L3924.76,8604.25L3924.76,8490.82L3889.5,8375.86L3875.71,8294.63L3857.31,8194.99L3837.39,8096.89L3823.59,8034.05L3811.33,7916.02L3799.07,7773.48L3783.74,7644.72L3771.48,7568.08L3742.35,7505.24L3739.29,7381.08L3733.16,7224.73L3727.03,7109.78L3714.76,7021.65L3700.97,6953.43L3699.44,6882.92L3699.44,6708.18L3681.04,6639.11L3679.51,6511.99L3682.58,6358.71L3714.76,6242.21L3756.15,6047.55L3773.01,5989.3L3760.75,5946.38L3636.59,6079.74L3581.93,6179.37L3538.49,6318.85L3521.63,6458.34L3521.63,6568.7L3553.82,6692.86L3581.93,6890.59L3556.89,7097.51L3552.29,7255.39L3581.93,7351.96L3598.27,7560.42L3612.07,7733.62L3644.26,7847.18L3677.98,7991.09L3713.23,8098.43L3720.89,8155.14L3754.62,8277.76L3792.94,8596.59L3799.07,8740.67L3811.33,8976.72C3811.33,8976.72 3822.06,9108.54 3822.06,9122.33C3822.06,9136.13 3848.12,9214.3 3857.31,9232.69C3866.51,9251.09 3912.49,9343.06 3912.49,9343.06L3970.74,9393.26L4035.12,9425.83L4105.63,9462.61L4131.68,9490.2L4136.28,9533.12L4070.37,9546.92L4007.53,9549.98L3972.27,9548.45L3924.76,9531.59L3855.78,9496.34L3756.15,9373.71L3693.31,9290.94L3685.64,9235.76L3656.52,9085.55L3653.45,8952.19L3651.92,8851.03L3661.12,8774.39L3635.06,8473.96L3625.86,8403.45L3595.21,8262.44L3581.93,8207.26L3506.3,7945.15L3495.57,7880.77L3484.85,7787.27L3464.92,7468.45L3464.92,7414.8L3454.19,7301.37L3471.05,7021.65L3466.45,6953.43L3437.33,6867.59L3423.53,6794.02L3391.34,6590.16L3389.81,6439.94L3400.54,6288.2L3141.5,6481.33Z" style="fill:rgb(26,26,26);stroke:rgb(26,26,26);stroke-width:22.4px;"/>
        <path d="M1855.07,7552.82L1849.08,7292.36L1855.07,7127.71L1741.31,6897.19L1657.49,6741.52L1483.85,6852.29L1489.84,7021.65L1498.82,7124.72L1555.7,7289.37L1855.07,7552.82Z" style="fill:rgb(26,26,26);stroke:black;stroke-width:22.4px;"/>
        <path d="M1896.98,6436.16L2025.72,6699.61L2079.6,6870.25L2139.48,7021.65L2154.45,7147.17L2453.82,6978.02L2438.85,6918.15L2375.98,6702.6L2310.12,6540.94L2208.33,6319.4L2079.6,6175.7L1896.98,6436.16Z" style="fill:rgb(26,26,26);stroke:rgb(26,26,26);stroke-width:22.4px;"/>
        <path d="M2372.99,5825.43L2585.54,5558.99L2687.33,5702.69L2740.56,5915.25L2851.99,6175.7L2893.9,6328.38L2959.76,6546.92L2944.79,6627.01L2872.94,6741.52L2740.56,6813.37L2702.3,6816.36L2708.29,6567.88L2645.42,6343.35L2558.6,6148.76L2453.82,5946.38L2372.99,5825.43Z" style="fill:rgb(26,26,26);stroke:rgb(26,26,26);stroke-width:22.4px;"/>
        <path d="M2859.36,5229.68L2988.09,5460.2L3044.97,5612.88L3137.78,5819.45L3149.75,6008.05L3197.65,6112.83L3230.58,6187.68L3233.58,6313.41L3209.63,6415.2L3302.43,6418.19L3401.23,6271.5L3461.1,6175.7L3452.12,5828.43L3404.22,5454.21L3335.37,5280.57L3227.59,5121.9L3134.78,4984.19L2859.36,5229.68Z" style="fill:rgb(26,26,26);stroke:rgb(26,26,26);stroke-width:22.4px;"/>
        <path d="M4453.2,7214.97L4435.96,7301.19L4416.8,7324.18L4384.23,7354.84L4336.33,7410.4L4257.77,7425.73L4156.23,7352.92L4133.23,7306.94L4106.41,7257.13L4056.6,7209.23L4031.69,7168.99L3979.95,7092.35L4001.03,7052.11L4123.65,7004.21L4279.81,6981.22L4355.49,7000.38L4397.64,7052.11L4453.2,7147.17L4453.2,7214.97Z" style="fill:rgb(38,38,38);stroke:black;stroke-width:3.45px;"/>
        <path d="M4453.2,7214.97L4395.73,7201.56L4334.41,7191.98L4263.52,7222.64L4200.29,7270.54L4148.56,7285.86L4108.33,7228.39L4106.41,7128.75L4161.97,7069.36L4242.45,7052.11L4309.51,7055.94L4412.97,7124.92L4434.05,7170.9L4453.2,7214.97Z" style="stroke:black;stroke-width:3.45px;"/>
        <path d="M5082.53,8376.31L4932.84,8279.01L4805.61,8211.65L4663.4,8226.62L4509.98,8350.11L4453.2,8409.99L4431.39,8505.41L4453.2,8698.36L4495.01,8874.02L4539.91,9001.25L4513.72,9019.96L4453.2,8877.76L4408.94,8698.36L4386.48,8505.41L4371.51,8428.7L4356.55,8372.57L4322.87,8505.41L4337.84,8638.26L4375.26,8832.85L4453.2,9008.74L4517.46,9094.81L4566.11,9203.33L4644.69,9274.43L4689.6,9397.92L4719.54,9450.31L4700.82,9495.22L4397.71,9319.34L4405.19,9203.33L4367.77,9046.16L4334.09,8859.05L4315.38,8698.36L4279.81,8544.71L4279.81,8395.02L4322.87,8189.2L4382.74,8088.16L4453.2,8002.09L4453.2,7957.19L4517.46,7916.02L4614.76,7938.48L4719.54,8013.32L4824.32,8073.19L4966.53,8177.97L5027.49,8252.82L5075.04,8312.46L5082.53,8376.31Z" style="fill:rgb(26,26,26);stroke:rgb(38,38,38);stroke-width:3.45px;"/>
        <path d="M5209.76,8776.72L5027.49,8765.5L4929.1,8817.89L4820.57,8866.53L4681.17,8941.38L4625.98,9031.19L4644.69,9150.94L4642.84,9139.07L4577.33,8911.44L4573.59,8795.43L4614.76,8656.97L4738.25,8505.41L4861.74,8421.22L4966.53,8424.96L5082.53,8443.67L5176.08,8505.41L5209.76,8619.55L5217.24,8705.62L5209.76,8776.72Z" style="fill:rgb(26,26,26);stroke:rgb(38,38,38);stroke-width:3.45px;"/>
        <path d="M5217.24,9053.64L5121.9,9016.22L4966.53,9087.32L4850.51,9150.94L4771.93,9233.27L4734.51,9300.63L4753.22,9416.63L4764.44,9495.22L4775.67,9551.35L4861.74,9454.05L4895.42,9345.53L5082.53,9308.11L5168.6,9285.66L5217.24,9244.49L5217.24,9053.64Z" style="fill:rgb(26,26,26);stroke:rgb(38,38,38);stroke-width:3.45px;"/>
        <path d="M4536.17,7755.11L4528.69,7713.94L4543.65,7669.04L4573.59,7639.1L4573.59,7564.26L4491.26,7500.64L4364.03,7519.35L4279.81,7590.45L4210.6,7579.23L4161.95,7414.57L4146.98,7324.76L4106.41,7238.69L4106.41,7530.58L4161.95,7635.36L4169.44,7717.69L4158.21,7847.18L4143.24,7916.02L4154.47,8061.97L4154.47,8256.56L4229.31,8177.97L4221.83,7957.19L4244.28,7847.18L4337.84,7740.14L4401.45,7691.49L4453.2,7691.49L4536.17,7755.11Z" style="fill:rgb(26,26,26);stroke:rgb(38,38,38);stroke-width:3.45px;"/>
        <path d="M5070.28,5920.66L4975.88,6015L4966.53,6157.2L4902.9,6318.11L4846.77,6501.48L4831.8,6684.85L4783.15,6886.92L4813.09,7059.06L4887.93,7148.88L5048.85,7451.99L5157.37,7650.33L5292.09,7949.7L5373.39,8204.17L5438.03,8436.18L5449.26,8537.22L5438.03,8567.16L5426.63,8395.26L5329.93,8213.39L5285.86,8075.44L5197.73,7897.25L5145.99,7784.21L4864.34,7345.44L4766.63,7186.42L4638.26,7021.65L4544.37,6904.77L4617.18,6605.87L4674.66,6569.47L4703.4,6471.75L4728.31,6337.63L4831.77,6144.12L4872.01,6032.99L4966.53,5900.79L5048.28,5827.98L5046.36,5760.92L5000.38,5782L4858.6,5896.96L4822.19,6000.42L4686.16,6199.68L4634.42,6335.72L4548.2,6525.4L4484.98,6632.7L4431.33,6759.15L4385.35,6828.13L4387.26,6893.27L4444.74,6958.41L4475.4,6985.24L4473.48,7044.64L4435.16,7021.65L4379.6,6958.41L4340,6960.33L4299.13,6956.5L4274.22,6881.78L4272.3,6778.31L4251.23,6663.35L4295.29,6542.65L4389.18,6370.2L4573.59,6144.12L4634.42,6071.31L4621.01,6126.88L4513.72,6270.57L4463.9,6341.47L4393.01,6429.6L4340,6515.82L4340,6751.49L4419.83,6649.94L4425.58,6559.89L4454.32,6439.18L4532.88,6322.31L4621.01,6172.86L4668.91,6098.14L4707.23,6006.17L4804.95,5893.12L4852.85,5835.64L4966.53,5747.51L5040.61,5707.27L5079.48,5710.95L5070.28,5920.66Z" style="fill:rgb(26,26,26);stroke:rgb(26,26,26);stroke-width:3.45px;"/>
        <path d="M4608.04,7170.39L4678.55,7300.68L4753.66,7403.38L4821.1,7467.76L4897.74,7562.79L4966.53,7654.76L5093.94,7847.18L5106.82,7892.34L5153.72,7952.12L5188.97,8037.95L5207.36,8123.79L5224.22,8185.1L5240.1,8287.8L5279.4,8372.1L5297.8,8427.28L5290.13,8441.08L5267.14,8419.62L5215.03,8319.99L5195.1,8231.09L5164.44,8146.78L5106.82,8042.55L5038.76,7933.72L4966.53,7811.1L4914.6,7723.73L4870.15,7653.22L4802.71,7584.25L4759.79,7507.61L4678.55,7389.58L4627.97,7303.75L4600.38,7219.44L4608.04,7170.39Z" style="fill:rgb(26,26,26);stroke:rgb(26,26,26);stroke-width:3.45px;"/>
        <path d="M4445.57,7231.7L4496.15,7303.75L4551.33,7455.49L4600.38,7561.26L4632.57,7650.16L4703.07,7754.39L4744.46,7847.18L4877.81,7953.65L4928.4,8019.56L4991.24,8108.46L5069.41,8186.64L5127.66,8269.41L5149.12,8333.78L5156.78,8381.3L5179.77,8358.31L5185.9,8332.25L5165.98,8252.55L5106.82,8169.78L5060.22,8097.73L4949.09,7964.38L4894.67,7883.14L4821.1,7805.74L4788.91,7722.2L4736.8,7667.02L4678.55,7614.9L4615.7,7483.08L4560.52,7363.53L4505.34,7230.17L4456.29,7193.39" style="fill:rgb(26,26,26);stroke:rgb(26,26,26);stroke-width:3.45px;"/>
        <path d="M5449.26,9585.26L5599.87,9496.13L5800.45,9391.35L6007.02,9415.3L6141.74,9457.21L6273.69,9529.06L6273.69,9564.99" style="fill:none;stroke:black;stroke-width:27.85px;"/>
        <path d="M5449.26,9488.31L5602.86,9391.35L5767.52,9301.54L5890.26,9295.55L6001.03,9331.48L6168.68,9391.35L6228.55,9433.26" style="fill:none;stroke:black;stroke-width:27.85px;"/>
        <path d="M5411.26,9391.93L5599.87,9295.55L5725.61,9199.75L5788.47,9193.76L5861.48,9214.72L6033.96,9268.61L6147.72,9328.48" style="fill:none;stroke:black;stroke-width:27.85px;"/>
        <path d="M5080.09,5707.27L5068.11,6012.02L5063.32,6167.69L5010.63,6313.79L4938.78,6522.15L4933.99,6764.05L4966.53,7044.26L5058.53,7216.7L5125.59,7377.16L5233.37,7571.16L5276.48,7719.65L5314.8,7847.18L5369.88,8031L5449.26,8201.04L5482.44,8380.66L5494.42,8526.76L5506.4,8620.16L5635.72,8680.04L5595.01,8524.36L5506.4,8263.31L5449.26,8112.43L5411.26,7966.33L5360.3,7777.13L5336.35,7643.01L5262.11,7480.15L5219,7336.45L5166.31,6936.49L5135.17,6802.37L5096.85,6526.94L5132.78,6419.17L5154.33,6234.75L5197.44,6086.27L5257.32,6033.57L5250.13,6141.35L5235.76,6239.54L5204.63,6309L5219,6383.24L5252.53,6414.38L5235.76,6481.44L5185.47,6577.24L5216.6,6759.26C5216.6,6759.26 5221.39,6780.81 5230.97,6821.53C5240.55,6862.24 5269.29,6970.02 5269.29,6970.02L5290.85,7075.4L5321.98,7238.26L5381.86,7504.1L5411.26,7645.4L5449.26,7731.62L5449.26,7847.18L5489.63,8033.39L5523.16,8143.56L5568.66,8258.52L5616.56,8380.66L5652.49,8526.76L5674.04,8656.09L5690.81,8696.8L5719.55,8670.46L5700.39,8591.42L5645.3,8349.53L5602.19,8227.39L5544.71,8078.9L5530.34,7947.17L5470.47,7640.61L5449.26,7525.65L5411.26,7326.87L5374.67,7137.22L5355.51,7021.65L5411.26,7137.22L5487.23,7355.61L5523.16,7568.76L5549.5,7779.52L5583.03,7961.54L5602.19,8028.6L5635.72,8179.49L5676.44,8299.24L5724.34,8495.62L5743.5,8601L5779.49,8663.27L5779.49,8593.82L5745.89,8402.22L5690.81,8210.62L5642.91,8035.79L5587.82,7753.18L5575.85,7616.66L5554.29,7475.36L5515.98,7281.36L5449.26,7108.93L5411.26,6996.36L5372.28,6843.08L5360.3,6754.47L5310.01,6622.74L5317.19,6560.47L5336.35,6426.35L5336.35,6392.82L5290.85,6332.95L5307.61,6285.05L5367.48,6301.81L5411.26,6402.4L5411.26,6548.5L5449.26,6658.67L5477.65,6778.42L5484.84,6886.19L5494.42,7021.65L5520.77,7104.14L5554.29,7238.26L5571.06,7329.26L5585.43,7434.64L5595.01,7540.02L5616.56,7638.22L5635.72,7743.6L5650.09,7810.66L5662.07,7887.3L5702.78,8057.34L5721.94,8189.07L5753.08,8294.44L5779.49,8392.64L5815.35,8567.16L5838.91,8646.51L5882.41,8610.58L5862.09,8567.16L5838.91,8404.61L5779.49,8244.15L5748.29,8126.8L5705.18,7920.83L5676.44,7678.93L5652.49,7453.8L5618.96,7269.39L5609.38,7082.58L5618.96,6785.6L5595.01,6641.9L5504,6447.91L5449.26,6323.37L5411.26,6237.15L5374.67,6117.4L5411.26,6146.14L5506.4,6239.54L5578.24,6383.24L5676.44,6603.58L5695.6,6814.34L5714.76,6955.65L5721.94,7243.05L5748.29,7489.73L5741.1,7765.15L5779.49,8033.39L5805.77,8143.56L5862.09,8351.92L5891.99,8471.67L5918.33,8567.16L5950.53,8512.39L5903.96,8418.98L5838.91,8153.14L5808.16,7932.8L5779.49,7743.6L5808.16,7523.26L5838.91,7322.08L5862.09,7195.15L5838.91,6893.38L5779.49,6706.57L5738.71,6517.36L5640.51,6344.92L5554.29,6232.36L5532.74,6126.98L5630.93,6208.41L5779.49,6383.24L5838.91,6553.29L5908.75,6725.73L5950.53,6811.95L5985.39,6922.12L5950.53,7092.16L5918.33,7331.66L5862.09,7477.75L5838.91,7619.06L5838.91,7939.99L5862.09,8050.16L5889.59,8184.28L5913.54,8289.66L5862.09,7923.22L5894.38,7698.09L5915.94,7523.26L5999.76,7290.94L6071.61,7021.65L6088.38,6639.51L5999.76,6471.86L5654.88,6028.78L5561.48,5940.17L5650.09,5940.17L5838.91,6081.48L5930.31,6217.99L6014.13,6323.37L6119.51,6491.02L6228.55,6668.25L6228.55,6831.11L6196.15,6902.96L6179.39,6970.02L6270.4,6888.59L6335.06,6855.06L6315.9,6730.52L6289.56,6538.92L6147.72,6344.92L5950.53,6158.11L5838.91,5980.89L5707.57,5837.19L5578.24,5707.27L5331.56,5640.8L5080.09,5707.27" style="fill:rgb(26,26,26);stroke:rgb(26,26,26);stroke-width:3.81px;"/>
        <path d="M4561.79,5430.73L4465.99,5499.58L4424.08,5589.39L4373.19,5685.19L4316.3,5718.12C4316.3,5718.12 4238.47,5831.89 4205.54,5858.83C4172.61,5885.77 4133.69,5972.59 4133.69,5972.59L4124.7,6038.45L4259.42,5855.84L4361.21,5772.01L4480.96,5658.25L4537.84,5529.52L4600.71,5469.64L4606.7,5526.53L4561.79,5592.39L4690.52,5493.59L4753.39,5463.66L4702.5,5541.49L4591.73,5604.36L4489.94,5712.14L4364.2,5831.89L4295.35,5942.65L4271.4,6134.25L4238.47,6236.04L4175.6,6301.9L4133.69,6373.75L4085.79,6454.58L4043.87,6589.3C4043.87,6589.3 4013.94,6691.09 4013.94,6718.03C4013.94,6744.97 4010.94,6792.87 4010.94,6792.87L3992.98,6840.77L3969.03,6924.6L3927.12,6822.81L3873.23,6682.11L3885.21,6565.35L3876.22,6385.73L3930.11,6259.99L3986.99,6131.26L4067.82,5945.65L4115.72,5837.87L4187.57,5721.12L4319.3,5565.44L4361.21,5514.55L4457.01,5442.7L4561.79,5373.84L4561.79,5430.73Z" style="fill:rgb(26,26,26);stroke:rgb(26,26,26);stroke-width:3.81px;"/>
        <path d="M4864.16,5484.61L4795.3,5577.42L4645.61,5667.23L4510.9,5775.01L4415.1,5930.68L4313.31,6113.3L4349.23,6176.16L4406.12,6149.22L4528.86,6053.42L4615.68,5906.73L4666.57,5763.03L4804.28,5682.2L4900.08,5649.27L4983.02,5700.05L5077.76,5707.27L5330.25,5640.8L5328.19,5607.36L5328.19,5412.76L5313.22,5269.06L5268.31,5239.13L5286.27,5068.48L5343.15,4906.82L5325.19,4769.11L5259.33,4643.37L5073.72,4209.28L5034.8,4095.52L4966.53,4002.71L4927.03,3951.82L4858.17,3957.81L4702.5,4092.53L4636.63,4215.27L4648.61,4367.95L4705.49,4466.74L4786.32,4673.31L4813.26,4903.83L4831.23,5095.43L4867.15,5224.16C4867.15,5224.16 4897.09,5299 4900.08,5331.93C4903.08,5364.86 4894.1,5445.69 4894.1,5445.69L4864.16,5484.61" style="fill:rgb(26,26,26);stroke:rgb(26,26,26);stroke-width:3.81px;"/>
        <path d="M5473.48,9719.69L5380.67,9836.45L5266.91,9953.21L5135.19,10001.1L5078.31,9962.19" style="fill:none;stroke:black;stroke-width:24.22px;"/>
        <path d="M5440.55,9665.81L5383.67,9749.63L5275.89,9812.5L5210.03,9860.4L5111.24,9860.4L5078.31,9818.49" style="fill:none;stroke:black;stroke-width:24.22px;"/>
        <path d="M5122.62,10086.7L5335.77,10001.1L5473.48,9885.49L5718.97,9763.1L5956.07,9763.1L6159.65,9799.27L6332.09,9923.81L6425.49,10001.1L6375.2,10134.6L6332.09,10172.9L6250.66,10189.7L6162.04,10168.1L6063.85,10122.6L5833.93,10096.3L5654.31,10103.4L5386.07,10160.9L5259.43,10180.1L5139.38,10132.2L5122.62,10086.7Z" style="fill:rgb(26,26,26);stroke:rgb(26,26,26);stroke-width:1.63px;"/>
        <path d="M5153.9,8389.92L5291,8689.57L5291,8905.59L5331.6,9187.82L5291,9323.7L5415.22,9292.35L5721.83,9069.35L5889.08,9086.78L6007.54,9215.69L6174.79,9323.7L6338.55,9369L6213.11,9170.4L6105.1,9044.97L6031.93,8870.75L5977.21,8762.74L5977.21,8546.72L5732.29,8675.63L5540.65,8665.18L5291,8484L5153.9,8389.92Z" style="fill:rgb(26,26,26);stroke:rgb(26,26,26);stroke-width:3.81px;"/>
        <path d="M4479.37,4418.65L4568.25,4783.51L4535.5,5064.17L4502.76,5185.79L4367.11,4652.53L4330.12,4592.04L4479.37,4418.65Z" style="fill:rgb(26,26,26);stroke:rgb(26,26,26);stroke-width:3.81px;"/>
        <path d="M5142.32,10153.3L5215.12,10325.8L5303.26,10502L5473.48,10592.1L5711.36,10655.3L5958.53,10584.4L6050.5,10530.8L6157.79,10386.5L6144.38,10310.4L6092.65,10346.8L5991.1,10438.8L5851.23,10504L5774.06,10532.7L5707.53,10521.2L5510.19,10429.2L5406.72,10346.8L5351.16,10251L5328.17,10212.7L5275.89,10170.6L5142.32,10153.3Z" style="fill:rgb(26,26,26);stroke:rgb(26,26,26);stroke-width:1.63px;"/>
    </g>
</svg>
